<?xml version="1.0" encoding="utf-8"?>
<!-- Generator: Adobe Illustrator 16.0.0, SVG Export Plug-In . SVG Version: 6.00 Build 0)  -->
<!DOCTYPE svg PUBLIC "-//W3C//DTD SVG 1.1//EN" "http://www.w3.org/Graphics/SVG/1.1/DTD/svg11.dtd">
<svg version="1.1"
	 id="svg2" xmlns:dc="http://purl.org/dc/elements/1.1/" xmlns:cc="http://creativecommons.org/ns#" xmlns:rdf="http://www.w3.org/1999/02/22-rdf-syntax-ns#" xmlns:svg="http://www.w3.org/2000/svg" xmlns:sodipodi="http://sodipodi.sourceforge.net/DTD/sodipodi-0.dtd" xmlns:inkscape="http://www.inkscape.org/namespaces/inkscape" sodipodi:docname="aspect_ratio.svg" inkscape:version="0.91 r13725"
	 xmlns="http://www.w3.org/2000/svg" xmlns:xlink="http://www.w3.org/1999/xlink" x="0px" y="0px" width="500px" height="500px"
	 viewBox="0 0 500 500" enable-background="new 0 0 500 500" xml:space="preserve">
<sodipodi:namedview  units="px" showgrid="false" inkscape:cy="846.75883" inkscape:cx="455.8441" inkscape:zoom="0.24748737" borderopacity="1.0" bordercolor="#666666" pagecolor="#ffffff" id="base" inkscape:snap-page="true" inkscape:snap-text-baseline="true" inkscape:object-paths="true" inkscape:object-nodes="true" inkscape:snap-smooth-nodes="true" inkscape:snap-center="true" inkscape:snap-object-midpoints="true" inkscape:window-maximized="1" inkscape:window-y="-8" inkscape:window-x="-8" inkscape:current-layer="g3344" inkscape:document-units="px" inkscape:pageopacity="0.0" inkscape:window-height="1058" inkscape:window-width="1920" inkscape:pageshadow="2" inkscape:snap-intersection-paths="true" inkscape:snap-bbox="true" inkscape:bbox-nodes="true" inkscape:snap-bbox-midpoints="true" inkscape:snap-midpoints="true" inkscape:bbox-paths="true" inkscape:snap-bbox-edge-midpoints="true">
	</sodipodi:namedview>
<g id="layer1" transform="translate(0,-552.36209)" inkscape:label="Layer 1" inkscape:groupmode="layer">
	<g id="g3344" transform="translate(-847.14336,-480.3648)">
		<path id="path4" inkscape:connector-curvature="0" fill="#FFFFFF" d="M1276.233,1302.727h-45.455v68.182h-68.182v45.455h113.636
			L1276.233,1302.727L1276.233,1302.727z M963.507,1194.545h68.182v-45.455H918.053v113.637h45.455V1194.545L963.507,1194.545z
			 M1301.687,1078.182H882.598c-25,0-35.455,10.454-35.455,35.454v338.182c0,25,10.455,35.455,35.455,35.455h429.09
			c25,0,35.455-10.455,35.455-35.455v-338.182c0-25-10.455-35.455-35.455-35.455L1301.687,1078.182L1301.687,1078.182z
			 M1314.642,1452.135H879.643v-338.816h434.999V1452.135z"/>
	</g>
</g>
</svg>
