<?xml version="1.0" encoding="utf-8"?>
<!-- Generator: Adobe Illustrator 16.0.0, SVG Export Plug-In . SVG Version: 6.00 Build 0)  -->
<!DOCTYPE svg PUBLIC "-//W3C//DTD SVG 1.1//EN" "http://www.w3.org/Graphics/SVG/1.1/DTD/svg11.dtd">
<svg version="1.1"
	 id="svg8694" xmlns:inkscape="http://www.inkscape.org/namespaces/inkscape" xmlns:dc="http://purl.org/dc/elements/1.1/" xmlns:sodipodi="http://sodipodi.sourceforge.net/DTD/sodipodi-0.dtd" xmlns:svg="http://www.w3.org/2000/svg" xmlns:cc="http://creativecommons.org/ns#" xmlns:rdf="http://www.w3.org/1999/02/22-rdf-syntax-ns#" sodipodi:docname="all.svg" inkscape:version="0.91 r13725"
	 xmlns="http://www.w3.org/2000/svg" xmlns:xlink="http://www.w3.org/1999/xlink" x="0px" y="0px" width="500px" height="500px"
	 viewBox="0 0 500 500" enable-background="new 0 0 500 500" xml:space="preserve">
<sodipodi:namedview  showgrid="false" borderopacity="1.0" id="base" pagecolor="#ffffff" inkscape:zoom="1.4" inkscape:cy="248.39267" inkscape:cx="310.22037" bordercolor="#666666" units="px" inkscape:snap-page="true" inkscape:snap-text-baseline="true" inkscape:object-paths="true" inkscape:object-nodes="true" inkscape:snap-smooth-nodes="true" inkscape:snap-center="true" inkscape:snap-object-midpoints="true" inkscape:window-maximized="1" inkscape:window-y="-8" inkscape:window-x="-8" inkscape:window-height="1058" inkscape:document-units="px" inkscape:pageopacity="0.0" inkscape:window-width="1920" inkscape:pageshadow="2" inkscape:current-layer="_x31_" inkscape:snap-intersection-paths="true">
	</sodipodi:namedview>
<g id="layer1" transform="translate(0,-552.36216)" inkscape:groupmode="layer" inkscape:label="Layer 1">
	<g id="_x31_" transform="translate(-688.31129,-319.64537)">
		<g id="_x31_2" transform="matrix(1.6764515,0,0,1.6764515,-2321.3416,105.14078)">
			<g id="g8460">
				<path id="path8462" inkscape:connector-curvature="0" fill="#FFFFFF" d="M1829.063,700.566c0,7.029,4.237,13.232,10.788,15.805
					c1.973,0.775,4.056,1.168,6.191,1.168l144.782-0.042c4.528-0.002,8.789-1.77,11.998-4.982c3.209-3.21,4.975-7.473,4.974-12.001
					l-0.035-121.853c0-7.027-4.237-13.232-10.788-15.805c-1.974-0.775-4.059-1.168-6.194-1.169L1846,561.729
					c-4.529,0.002-8.789,1.77-11.999,4.981c-3.208,3.211-4.974,7.474-4.974,12.002L1829.063,700.566L1829.063,700.566z
					 M1846.004,573.057l144.779-0.042c0.711,0,1.403,0.13,2.059,0.388c2.149,0.844,3.594,2.958,3.593,5.262l0.036,121.853
					c0,1.506-0.588,2.925-1.657,3.993c-1.069,1.07-2.487,1.659-3.993,1.659l-144.782,0.042c-0.71,0-1.402-0.13-2.057-0.387
					c-2.148-0.844-3.592-2.958-3.592-5.262l-0.036-121.853C1840.353,575.594,1842.887,573.058,1846.004,573.057z"/>
				<path id="path8464" inkscape:connector-curvature="0" fill="#FFFFFF" d="M2018.702,677.265c0,10.47,6.312,19.714,16.074,23.548
					c2.943,1.156,6.047,1.741,9.229,1.741c6.746-0.002,13.094-2.638,17.874-7.422c4.781-4.784,7.413-11.135,7.411-17.881
					c0-10.471-6.313-19.714-16.073-23.548c-2.942-1.155-6.046-1.741-9.227-1.741
					C2030.042,651.966,2018.697,663.316,2018.702,677.265L2018.702,677.265z M2043.994,663.287c1.756,0.001,3.469,0.323,5.091,0.96
					c5.31,2.085,8.877,7.312,8.878,13.006c0,7.703-6.261,13.94-13.962,13.943c-1.757,0.002-3.47-0.99-5.092-0.99
					c-0.001,0-0.001,0-0.001,0c-5.311-2-8.879-7.282-8.881-12.975C2030.026,669.528,2036.29,663.29,2043.994,663.287
					L2043.994,663.287z"/>
				<path id="path8466" inkscape:connector-curvature="0" fill="#FFFFFF" d="M2034.754,625.453c2.943,1.156,6.047,1.741,9.229,1.74
					c13.944-0.004,25.288-11.356,25.285-25.304c0-10.471-6.312-19.714-16.074-23.548c-2.94-1.155-6.045-1.741-9.225-1.74
					c-6.747,0.002-13.096,2.638-17.878,7.422c-4.781,4.784-7.412,11.133-7.412,17.88
					C2018.68,612.376,2024.993,621.62,2034.754,625.453z M2034.101,592.028c2.641-2.643,6.147-4.098,9.872-4.1
					c1.756,0.001,3.469,0.322,5.091,0.96c5.309,2.085,8.876,7.312,8.877,13.005c0,3.725-1.452,7.232-4.092,9.875
					c-2.64,2.642-6.146,4.098-9.87,4.1c-1.758,0-3.471-0.322-5.095-0.96c-5.309-2.085-8.877-7.312-8.88-13.006
					C2030.004,598.177,2031.459,594.671,2034.101,592.028L2034.101,592.028z"/>
				<path id="path8468" inkscape:connector-curvature="0" fill="#FFFFFF" d="M2093.502,725.459l-0.05-171.792
					c-0.01-10.958-6.61-20.631-16.826-24.643c-3.079-1.209-6.328-1.822-9.657-1.822l-78.603,0.023l26.23-43.069
					c2.109-3.459,2.742-7.532,1.786-11.467c-0.955-3.936-3.386-7.264-6.845-9.37c-2.375-1.451-5.11-2.214-7.881-2.215
					c-5.341,0.002-10.184,2.723-12.954,7.279l-35.845,58.853l-17.018,0.006l-35.879-58.833c-1.743-2.859-4.292-5.009-7.373-6.219
					c-1.774-0.697-3.653-1.05-5.587-1.049c-2.777,0.001-5.502,0.768-7.885,2.219c-7.133,4.358-9.397,13.705-5.044,20.836
					l26.256,43.057l-78.603,0.023c-7.062,0.002-13.708,2.761-18.711,7.767c-5.005,5.007-7.761,11.653-7.759,18.714l0.05,171.791
					c0,10.959,6.607,20.632,16.824,24.645c3.079,1.209,6.329,1.822,9.66,1.822l245.249-0.071c7.061-0.002,13.706-2.761,18.71-7.768
					C2090.749,739.165,2093.503,732.52,2093.502,725.459z M1920.493,538.57l-36.756-60.275c-1.101-1.804-0.529-4.168,1.274-5.268
					c0.605-0.368,1.293-0.563,1.99-0.562c0.495,0,0.974,0.089,1.424,0.266c0.776,0.305,1.419,0.848,1.861,1.574l39.191,64.263
					l29.742-0.008l39.154-64.289c0.702-1.153,1.929-1.841,3.284-1.842c0.694,0.001,1.384,0.194,1.987,0.562
					c0.875,0.533,1.49,1.375,1.732,2.371c0.242,0.996,0.08,2.026-0.453,2.901l-36.719,60.294l98.768-0.028
					c1.906-0.001,3.765,0.349,5.524,1.04c5.757,2.261,9.628,7.928,9.63,14.101l0.049,171.792c0,4.039-1.575,7.842-4.438,10.706
					c-2.864,2.865-6.667,4.444-10.707,4.445l-245.249,0.351c-1.906,0.001-3.765,0.24-5.524-0.76h-0.001
					c-5.758-2-9.627-8.21-9.629-14.383l-0.05-171.931c0-8.352,6.791-15.219,15.145-15.221L1920.493,538.57z"/>
			</g>
		</g>
	</g>
</g>
</svg>
