<?xml version="1.0" encoding="utf-8"?>
<!-- Generator: Adobe Illustrator 16.0.0, SVG Export Plug-In . SVG Version: 6.00 Build 0)  -->
<!DOCTYPE svg PUBLIC "-//W3C//DTD SVG 1.1//EN" "http://www.w3.org/Graphics/SVG/1.1/DTD/svg11.dtd">
<svg version="1.1"
	 id="svg8694" xmlns:inkscape="http://www.inkscape.org/namespaces/inkscape" xmlns:dc="http://purl.org/dc/elements/1.1/" xmlns:sodipodi="http://sodipodi.sourceforge.net/DTD/sodipodi-0.dtd" xmlns:svg="http://www.w3.org/2000/svg" xmlns:cc="http://creativecommons.org/ns#" xmlns:rdf="http://www.w3.org/1999/02/22-rdf-syntax-ns#" sodipodi:docname="closed.svg" inkscape:version="0.91 r13725"
	 xmlns="http://www.w3.org/2000/svg" xmlns:xlink="http://www.w3.org/1999/xlink" x="0px" y="0px" width="500px" height="500px"
	 viewBox="0 0 500 500" enable-background="new 0 0 500 500" xml:space="preserve">
<sodipodi:namedview  showgrid="false" borderopacity="1.0" id="base" pagecolor="#ffffff" inkscape:zoom="0.98994949" inkscape:cy="347.31741" inkscape:cx="87.635141" bordercolor="#666666" units="px" inkscape:snap-page="true" inkscape:snap-text-baseline="true" inkscape:object-paths="true" inkscape:object-nodes="true" inkscape:snap-smooth-nodes="true" inkscape:snap-center="true" inkscape:snap-object-midpoints="true" inkscape:window-maximized="1" inkscape:window-y="-8" inkscape:window-x="-8" inkscape:window-height="1058" inkscape:document-units="px" inkscape:pageopacity="0.0" inkscape:window-width="1920" inkscape:pageshadow="2" inkscape:current-layer="_x31_" inkscape:snap-intersection-paths="true">
	</sodipodi:namedview>
<g id="layer1" transform="translate(0,-552.36216)" inkscape:groupmode="layer" inkscape:label="Layer 1">
	<g id="_x31_" transform="translate(-688.31129,-319.64537)">
		<g id="_x33_" transform="matrix(1.6670334,0,0,1.6670334,-560.72515,686.62508)">
			<g id="g8167">
				<path id="path8169" inkscape:connector-curvature="0" fill="#FFFFFF" d="M883.779,346.705c0,3.033,2.478,5.5,5.522,5.5h78.239
					c3.027,0,5.684-2.734,5.684-5.853V239.917c0-3.043-2.655-5.712-5.684-5.712h-8.317v-28.808c0-29.881-24.229-54.192-54.01-54.192
					h-0.983c-29.779,0-54.007,24.311-54.007,54.192v28.808h-8.319c-3.026,0-5.681,2.669-5.681,5.712v106.436
					c0,3.045,2.467,5.522,5.5,5.522c3.033,0,5.5-2.478,5.5-5.522V245.205h115v96h-72.922
					C886.257,341.205,883.779,343.671,883.779,346.705L883.779,346.705z M948.224,205.397v28.808h-87v-28.808
					c0-23.816,19.293-43.192,43.007-43.192h0.983C928.931,162.205,948.224,181.581,948.224,205.397z"/>
				<path id="path8171" inkscape:connector-curvature="0" fill="#FFFFFF" d="M904.723,274.477c3.045,0,5.522-2.478,5.522-5.523
					s-2.479-5.522-5.522-5.522c-10.383,0-18.83,8.447-18.83,18.83c0,10.384,8.447,18.83,18.83,18.83
					c10.383,0,18.83-8.446,18.83-18.83c0-3.045-2.478-5.522-5.522-5.522c-3.044,0-5.522,2.478-5.522,5.522
					c0,4.293-3.491,7.785-7.785,7.785s-7.785-3.492-7.785-7.785C896.938,277.969,900.43,274.477,904.723,274.477L904.723,274.477z"
					/>
				<path id="path8173" inkscape:connector-curvature="0" fill="#FFFFFF" d="M899.224,111.205
					c-82.692,0-149.967,67.275-149.967,149.967c0,82.692,67.275,149.967,149.967,149.967c3.37,0,6.104-2.733,6.104-6.104
					c0-3.37-2.733-6.104-6.104-6.104c-75.961,0.001-137.76-61.798-137.76-137.76s61.799-137.76,137.76-137.76
					c75.961,0,137.76,61.799,137.76,137.76c0,47.283-23.825,90.722-63.732,116.201c-2.841,1.814-3.674,5.588-1.861,8.429
					c1.814,2.841,5.587,3.674,8.429,1.861c43.438-27.733,69.371-75.019,69.371-126.49
					C1049.193,178.48,981.918,111.205,899.224,111.205L899.224,111.205z"/>
			</g>
		</g>
	</g>
</g>
</svg>
