<?xml version="1.0" encoding="utf-8"?>
<!-- Generator: Adobe Illustrator 16.0.0, SVG Export Plug-In . SVG Version: 6.00 Build 0)  -->
<!DOCTYPE svg PUBLIC "-//W3C//DTD SVG 1.1//EN" "http://www.w3.org/Graphics/SVG/1.1/DTD/svg11.dtd">
<svg version="1.1"
	 id="svg8694" xmlns:inkscape="http://www.inkscape.org/namespaces/inkscape" xmlns:dc="http://purl.org/dc/elements/1.1/" xmlns:sodipodi="http://sodipodi.sourceforge.net/DTD/sodipodi-0.dtd" xmlns:svg="http://www.w3.org/2000/svg" xmlns:cc="http://creativecommons.org/ns#" xmlns:rdf="http://www.w3.org/1999/02/22-rdf-syntax-ns#" sodipodi:docname="favorites.svg" inkscape:version="0.91 r13725"
	 xmlns="http://www.w3.org/2000/svg" xmlns:xlink="http://www.w3.org/1999/xlink" x="0px" y="0px" width="500px" height="500px"
	 viewBox="0 0 500 500" enable-background="new 0 0 500 500" xml:space="preserve">
<sodipodi:namedview  showgrid="false" borderopacity="1.0" id="base" pagecolor="#ffffff" inkscape:zoom="0.35" inkscape:cy="520" inkscape:cx="-222.14286" bordercolor="#666666" units="px" inkscape:window-maximized="1" inkscape:window-y="-8" inkscape:window-x="-8" inkscape:window-height="1058" inkscape:document-units="px" inkscape:pageopacity="0.0" inkscape:window-width="1920" inkscape:pageshadow="2" inkscape:current-layer="_x31_">
	</sodipodi:namedview>
<g id="layer1" transform="translate(0,-552.36216)" inkscape:groupmode="layer" inkscape:label="Layer 1">
	<g id="_x31_" transform="translate(-688.31129,-319.64537)">
		<g id="_x32_" transform="matrix(1.6670334,0,0,1.6670334,21.124517,686.62508)">
			<g id="g8160">
				<path id="path8162" inkscape:connector-curvature="0" fill="#FFFFFF" d="M603.299,289.723c-0.643-2.011,0.068-4.202,1.771-5.452
					l38.068-27.929c6.061-4.446,8.477-11.939,6.154-19.087c-2.322-7.149-8.68-11.791-16.197-11.826l-47.215-0.219
					c-2.112-0.01-3.976-1.363-4.637-3.368l-14.798-44.837c-2.356-7.138-8.734-11.749-16.251-11.751l0,0
					c-7.517,0-13.896,4.612-16.252,11.749l-6.67,20.202c-1.057,3.2,0.681,6.653,3.882,7.709c3.201,1.059,6.652-0.681,7.71-3.882
					l6.67-20.202c1.031-3.126,3.827-3.369,4.66-3.369c0.832,0,3.628,0.243,4.659,3.369l14.798,44.838
					c2.309,6.994,8.807,11.715,16.172,11.749l47.215,0.219c3.292,0.015,4.388,2.599,4.644,3.391c0.257,0.791,0.89,3.525-1.764,5.472
					l-38.069,27.929c-5.938,4.357-8.42,11.997-6.177,19.012l14.387,44.987c1.003,3.135-1.116,4.976-1.789,5.464
					c-0.673,0.489-3.077,1.937-5.75,0.013l-38.328-27.582c-5.979-4.302-14.014-4.302-19.993,0l-38.335,27.587
					c-2.672,1.923-5.077,0.476-5.75-0.012c-0.673-0.489-2.792-2.329-1.79-5.463l14.383-44.994c2.243-7.014-0.24-14.653-6.177-19.011
					l-38.067-27.929c-2.654-1.947-2.021-4.681-1.764-5.472c0.257-0.791,1.353-3.375,4.644-3.391l47.218-0.219
					c3.37-0.016,6.09-2.761,6.075-6.132c-0.016-3.361-2.746-6.075-6.104-6.075c-0.009,0-0.019,0-0.029,0l-47.218,0.219
					c-7.517,0.035-13.875,4.676-16.197,11.826c-2.322,7.149,0.093,14.642,6.152,19.088l38.067,27.929
					c1.702,1.249,2.414,3.439,1.771,5.451l-14.382,44.993c-2.289,7.16,0.162,14.641,6.243,19.058
					c3.052,2.217,6.553,3.325,10.057,3.325c3.478,0,6.958-1.094,9.999-3.281l38.334-27.587c1.714-1.234,4.018-1.234,5.732,0
					l38.328,27.582c6.102,4.391,13.973,4.374,20.055-0.046c6.082-4.418,8.532-11.899,6.242-19.06L603.299,289.723L603.299,289.723z"
					/>
				<path id="path8164" inkscape:connector-curvature="0" fill="#FFFFFF" d="M550.191,111.205
					c-82.692,0-149.967,67.275-149.967,149.967c0,82.692,67.275,149.967,149.967,149.967c3.37,0,6.104-2.733,6.104-6.104
					c0-3.371-2.733-6.104-6.104-6.104c-75.961,0.001-137.76-61.798-137.76-137.76s61.799-137.76,137.76-137.76
					c75.961,0,137.76,61.799,137.76,137.76c0,47.283-23.824,90.722-63.732,116.201c-2.841,1.814-3.674,5.588-1.861,8.429
					c1.814,2.841,5.587,3.674,8.429,1.861c43.438-27.733,69.371-75.019,69.371-126.49
					C700.159,178.48,632.884,111.205,550.191,111.205L550.191,111.205z"/>
			</g>
		</g>
	</g>
</g>
</svg>
