<?xml version="1.0" encoding="utf-8"?>
<!-- Generator: Adobe Illustrator 16.0.0, SVG Export Plug-In . SVG Version: 6.00 Build 0)  -->
<!DOCTYPE svg PUBLIC "-//W3C//DTD SVG 1.1//EN" "http://www.w3.org/Graphics/SVG/1.1/DTD/svg11.dtd">
<svg version="1.1"
	 id="svg8694" xmlns:inkscape="http://www.inkscape.org/namespaces/inkscape" xmlns:dc="http://purl.org/dc/elements/1.1/" xmlns:sodipodi="http://sodipodi.sourceforge.net/DTD/sodipodi-0.dtd" xmlns:svg="http://www.w3.org/2000/svg" xmlns:cc="http://creativecommons.org/ns#" xmlns:rdf="http://www.w3.org/1999/02/22-rdf-syntax-ns#" sodipodi:docname="films.svg" inkscape:version="0.91 r13725"
	 xmlns="http://www.w3.org/2000/svg" xmlns:xlink="http://www.w3.org/1999/xlink" x="0px" y="0px" width="500px" height="500px"
	 viewBox="0 0 500 500" enable-background="new 0 0 500 500" xml:space="preserve">
<sodipodi:namedview  showgrid="false" borderopacity="1.0" id="base" pagecolor="#ffffff" inkscape:zoom="0.98994949" inkscape:cy="347.31741" inkscape:cx="87.635141" bordercolor="#666666" units="px" inkscape:snap-page="true" inkscape:snap-text-baseline="true" inkscape:object-paths="true" inkscape:object-nodes="true" inkscape:snap-smooth-nodes="true" inkscape:snap-center="true" inkscape:snap-object-midpoints="true" inkscape:window-maximized="1" inkscape:window-y="-8" inkscape:window-x="-8" inkscape:window-height="1058" inkscape:document-units="px" inkscape:pageopacity="0.0" inkscape:window-width="1920" inkscape:pageshadow="2" inkscape:current-layer="_x31_" inkscape:snap-intersection-paths="true">
	</sodipodi:namedview>
<g id="layer1" transform="translate(0,-552.36216)" inkscape:groupmode="layer" inkscape:label="Layer 1">
	<g id="_x31_" transform="translate(-688.31129,-319.64537)">
		<g id="_x34_" transform="matrix(1.6725037,0,0,1.6725037,-1146.7999,686.0385)">
			<g id="g8176">
				<g id="g8178">
					<path id="path8180" inkscape:connector-curvature="0" fill="#FFFFFF" d="M1216.187,239.657
						c-11.586,0-21.012,9.426-21.012,21.011c0,11.586,9.426,21.011,21.012,21.011c11.586,0,21.011-9.426,21.011-21.011
						S1227.773,239.657,1216.187,239.657z M1216.187,272.528c-6.54,0-11.859-5.32-11.859-11.859s5.32-11.859,11.859-11.859
						c6.539,0,11.859,5.32,11.859,11.859C1228.045,267.208,1222.726,272.528,1216.187,272.528z"/>
				</g>
			</g>
			<g id="g8182">
				<g id="g8184">
					<path id="path8186" inkscape:connector-curvature="0" fill="#FFFFFF" d="M1301.423,217.728
						c-6.073-5.969-14.387-9.321-22.894-9.321c-2.472,0-4.956,0.284-7.385,0.845c-8.508,1.966-15.744,7.128-20.37,14.534
						c-4.805,7.692-6.19,17.324-3.774,26.066c3.917,14.176,16.663,23.955,31.479,23.955c11.208,0,21.819-5.88,27.754-15.38
						C1314.247,245.599,1312.195,228.317,1301.423,217.728L1301.423,217.728z M1277.346,264.621
						c-0.048,0.754-8.445-2.027-9.186-2.396c-9.125-4.542-14.549-14.844-12.871-24.937c0.969-5.828,4.153-11.198,8.828-14.814
						c8.638,10.827,13.355,24.246,13.355,38.194C1277.473,261.985,1277.43,263.305,1277.346,264.621z M1286.575,263.218
						c0.03-0.851,0.05-1.7,0.05-2.55c0-15.36-4.977-30.16-14.127-42.317c0.235-0.062,0.468-0.127,0.706-0.181
						c12.557-2.9,25.339,5.097,28.236,17.638C1304.081,247.236,1297.595,259.221,1286.575,263.218L1286.575,263.218z"/>
				</g>
			</g>
			<g id="g8188">
				<g id="g8190">
					<path id="path8192" inkscape:connector-curvature="0" fill="#FFFFFF" d="M1281.705,292.742
						c-6.238-8.19-15.725-12.888-26.032-12.888c-10.215-0.001-19.676,4.94-25.76,12.731c-2.49,3.187-4.412,6.851-5.591,10.85
						c-2.9,9.839-0.844,20.771,5.361,28.922c6.237,8.19,15.724,12.887,26.034,12.888c7.2,0,14.042-2.312,19.785-6.686
						c6.948-5.291,11.419-12.971,12.591-21.624C1289.265,308.282,1286.997,299.69,1281.705,292.742L1281.705,292.742z
						 M1279.024,315.708c-0.843,6.231-4.063,11.761-9.066,15.571c-4.136,3.151-9.06,4.815-14.242,4.815
						c-7.026-0.001-13.52-3.033-18.003-8.355c4.289-1.378,8.451-3.161,12.422-5.349c2.213-1.22,3.019-4.003,1.799-6.216
						c-1.22-2.214-4.003-3.019-6.216-1.801c-3.977,2.193-8.167,3.927-12.499,5.179c-1.367-4.404-1.392-9.088-0.155-13.449
						c0.01-0.03,0.017-0.061,0.027-0.091c3.743-13.055,18.37-20.231,31.077-15.415c1.487,0.563,2.915,1.28,4.252,2.141
						c-2.514,4.084-5.504,7.867-8.918,11.279c-1.788,1.787-1.789,4.684,0,6.472c1.787,1.788,4.683,1.788,6.471,0.002
						c3.44-3.437,6.494-7.21,9.144-11.25c3.314,4.825,4.699,10.627,3.909,16.468H1279.024z"/>
				</g>
			</g>
			<g id="g8194">
				<g id="g8196">
					<path id="path8198" inkscape:connector-curvature="0" fill="#FFFFFF" d="M1209.066,308.192c0-0.013,0-0.026-0.01-0.039
						c-1.844-13.791-12.623-24.996-26.234-27.627c-3.487-0.674-7.081-0.778-10.6-0.296c-8.499,1.164-16.358,5.682-21.559,12.512
						c-5.291,6.948-7.56,15.54-6.388,24.194c1.172,8.654,5.643,16.334,12.591,21.624c5.743,4.373,12.585,6.686,19.787,6.686
						c10.307,0,19.795-4.697,26.032-12.888c5.209-6.84,7.529-15.648,6.376-24.165H1209.066z M1176.658,336.093
						c-5.181,0-10.106-1.665-14.242-4.814c-5.003-3.809-8.223-9.34-9.066-15.571c-0.79-5.837,0.593-11.636,3.903-16.459
						c8.858,13.535,22.044,23.58,37.402,28.495C1190.172,333.062,1183.68,336.093,1176.658,336.093L1176.658,336.093z
						 M1199.155,319.553c-14.653-4.223-27.188-13.771-35.2-26.815c2.804-1.802,5.967-2.984,9.28-3.473
						c0.056-0.008,0.112-0.016,0.168-0.025c9.205-1.272,18.481,3.1,23.331,11.023
						C1200.25,306.005,1201.153,313.119,1199.155,319.553L1199.155,319.553z"/>
				</g>
			</g>
			<g id="g8200">
				<g id="g8202">
					<path id="path8204" inkscape:connector-curvature="0" fill="#FFFFFF" d="M1161.229,209.252
						c-17.432-4.027-35.192,7.083-39.214,24.495c-4.01,17.355,7.175,35.213,24.495,39.215c17.43,4.027,35.192-7.081,39.215-24.495
						C1189.738,231.097,1178.556,213.255,1161.229,209.252L1161.229,209.252z M1145.749,260.667c0,0.85,0.019,1.699,0.05,2.55
						c-4.92-1.784-9.08-5.13-11.896-9.638c-3.332-5.333-4.386-11.645-2.971-17.771c2.482-10.744,11.904-18.249,22.913-18.249
						c1.779,0,3.571,0.206,5.324,0.61c0.237,0.055,0.471,0.12,0.706,0.181C1150.726,230.508,1145.749,245.309,1145.749,260.667
						L1145.749,260.667z M1177.15,244.571c-0.015,0.095-0.029,0.189-0.044,0.283c-1.769,10.853-11.072,19.25-22.079,19.767
						c-0.083-1.315-0.125-2.636-0.125-3.952c0-13.948,4.717-27.368,13.355-38.194
						C1174.937,227.642,1178.402,236.131,1177.15,244.571L1177.15,244.571z"/>
				</g>
			</g>
			<g id="g8206">
				<g id="g8208">
					<path id="path8210" inkscape:connector-curvature="0" fill="#FFFFFF" d="M1216.188,162.764
						c-18.028,0-32.694,14.666-32.694,32.694c0,9.088,3.961,17.996,10.658,24.13c5.963,5.462,13.95,8.564,22.037,8.564
						c9.598,0,19.009-4.426,25.162-11.835c4.827-5.81,7.531-13.306,7.531-20.86C1248.881,177.43,1234.215,162.764,1216.188,162.764z
						 M1236.142,207.934c-1.543,2.458-3.538,4.612-5.85,6.347c-4.043,3.035-9.047,4.718-14.104,4.718
						c-4.345,0-8.694-1.221-12.379-3.529c-4.464-2.796-7.939-7.014-9.747-11.97c7.039-2.734,14.466-4.118,22.125-4.118
						c7.66,0,15.085,1.383,22.125,4.118C1238.509,203.577,1236.361,207.586,1236.142,207.934z M1216.188,190.231
						c-8.11,0-15.99,1.356-23.512,4.027c0.626-12.426,10.933-22.341,23.512-22.341c12.578,0,22.884,9.916,23.511,22.341
						C1232.177,191.587,1224.296,190.231,1216.188,190.231z"/>
				</g>
			</g>
			<g id="g8212">
				<g id="g8214">
					<path id="path8216" inkscape:connector-curvature="0" fill="#FFFFFF" d="M1391.6,306.92h-18.245
						c-2.243,0-4.48,0.099-6.648,0.295c-2.517,0.228-4.373,2.452-4.146,4.969c0.227,2.517,2.451,4.373,4.97,4.146
						c1.895-0.172,3.854-0.258,5.824-0.258h13.669v18.305h-13.669c-10.639,0-16.738,2.322-29.784,15.37
						c-13.371,13.369-31.146,20.732-50.051,20.732h-31.587c10.914-4.563,21.17-10.744,30.268-18.305h1.32
						c14.018,0,27.195-5.459,37.108-15.37c6.008-6.008,12.616-12.091,20.23-15.889c2.262-1.128,3.181-3.876,2.052-6.138
						c-1.129-2.262-3.875-3.18-6.139-2.052c-8.785,4.382-16.061,11.052-22.616,17.606c-5.917,5.917-13.249,9.9-21.227,11.658
						c19.971-21.288,32.222-49.899,32.222-81.322c0-65.597-53.367-118.963-118.963-118.963c-24.206,0-47.506,7.233-67.383,20.92
						c-2.082,1.433-2.607,4.283-1.175,6.364c1.434,2.081,4.283,2.607,6.365,1.174c18.344-12.63,39.849-19.305,62.193-19.305
						c60.55,0,109.811,49.261,109.811,109.811c0,42.496-24.267,79.43-59.67,97.678c-14.36,7.361-30.288,11.544-46.544,12.068
						c-1.195,0.039-2.393,0.065-3.597,0.065c-60.551,0-109.811-49.261-109.811-109.81c0-30.261,12.05-58.45,33.931-79.374
						c1.826-1.747,1.891-4.643,0.145-6.47c-1.748-1.827-4.644-1.891-6.47-0.145c-11.493,10.991-20.534,23.923-26.87,38.435
						c-6.561,15.026-9.888,31.027-9.888,47.555c0,65.596,53.367,118.963,118.964,118.963c1.032,0,2.061-0.013,3.088-0.04
						c0.189,0.024,0.379,0.04,0.573,0.04h73.672c21.351,0,41.424-8.315,56.523-23.412c10.553-10.554,14.475-12.689,23.312-12.689
						h18.245c2.528,0,4.577-2.049,4.577-4.577v-27.458C1396.176,308.969,1394.127,306.92,1391.6,306.92L1391.6,306.92z"/>
				</g>
			</g>
		</g>
	</g>
</g>
</svg>
