<?xml version="1.0" encoding="utf-8"?>
<!-- Generator: Adobe Illustrator 16.0.0, SVG Export Plug-In . SVG Version: 6.00 Build 0)  -->
<!DOCTYPE svg PUBLIC "-//W3C//DTD SVG 1.1//EN" "http://www.w3.org/Graphics/SVG/1.1/DTD/svg11.dtd">
<svg version="1.1"
	 id="svg8694" xmlns:inkscape="http://www.inkscape.org/namespaces/inkscape" xmlns:dc="http://purl.org/dc/elements/1.1/" xmlns:sodipodi="http://sodipodi.sourceforge.net/DTD/sodipodi-0.dtd" xmlns:svg="http://www.w3.org/2000/svg" xmlns:cc="http://creativecommons.org/ns#" xmlns:rdf="http://www.w3.org/1999/02/22-rdf-syntax-ns#" sodipodi:docname="fun.svg" inkscape:version="0.91 r13725"
	 xmlns="http://www.w3.org/2000/svg" xmlns:xlink="http://www.w3.org/1999/xlink" x="0px" y="0px" width="500px" height="500px"
	 viewBox="0 0 500 500" enable-background="new 0 0 500 500" xml:space="preserve">
<sodipodi:namedview  showgrid="false" borderopacity="1.0" id="base" pagecolor="#ffffff" inkscape:zoom="1.4" inkscape:cy="248.39267" inkscape:cx="310.22037" bordercolor="#666666" units="px" inkscape:snap-page="true" inkscape:snap-text-baseline="true" inkscape:object-paths="true" inkscape:object-nodes="true" inkscape:snap-smooth-nodes="true" inkscape:snap-center="true" inkscape:snap-object-midpoints="true" inkscape:window-maximized="1" inkscape:window-y="-8" inkscape:window-x="-8" inkscape:window-height="1058" inkscape:document-units="px" inkscape:pageopacity="0.0" inkscape:window-width="1920" inkscape:pageshadow="2" inkscape:current-layer="_x31_" inkscape:snap-intersection-paths="true">
	</sodipodi:namedview>
<g id="layer1" transform="translate(0,-552.36216)" inkscape:groupmode="layer" inkscape:label="Layer 1">
	<g id="_x31_" transform="translate(-688.31129,-319.64537)">
		<g id="_x36_" transform="matrix(1.6669087,0,0,1.6669087,-2302.5013,688.0783)">
			<g id="g8250">
				<g id="g8252">
					<path id="path8254" inkscape:connector-curvature="0" fill="#FFFFFF" d="M1912.371,338.091
						c-0.093-1.628-1.016-3.092-2.445-3.878c-1.428-0.785-3.16-0.78-4.584,0.013c-8.388,4.676-20.934,7.358-34.42,7.358
						c-13.486,0-26.031-2.682-34.42-7.358c-1.424-0.794-3.155-0.799-4.584-0.013c-1.428,0.785-2.352,2.25-2.445,3.878
						c-0.035,0.611-0.734,15.078,9.602,26.019c7.292,7.718,18.006,11.632,31.847,11.632c13.841,0,24.556-3.914,31.846-11.632
						C1913.104,353.168,1912.405,338.701,1912.371,338.091L1912.371,338.091z M1895.888,357.611
						c-5.432,5.751-13.832,8.667-24.966,8.667c-11.085,0-19.462-2.891-24.895-8.593c-3.495-3.666-5.277-8.005-6.183-11.614
						c8.848,3.205,19.729,4.979,31.078,4.979c11.363,0,22.258-1.778,31.112-4.99C1901.14,349.629,1899.373,353.922,1895.888,357.611
						z"/>
				</g>
			</g>
			<g id="g8256">
				<g id="g8258">
					<path id="path8260" inkscape:connector-curvature="0" fill="#FFFFFF" d="M1854.241,272.315
						c-4.942-4.985-12.258-7.843-20.071-7.843c-7.814,0-15.13,2.859-20.073,7.843c-1.84,1.855-1.827,4.852,0.029,6.692
						c0.923,0.915,2.128,1.371,3.332,1.371c1.218,0,2.435-0.468,3.36-1.4c3.131-3.158,8.122-5.043,13.352-5.043
						c5.229,0,10.22,1.885,13.35,5.042c1.841,1.855,4.837,1.868,6.692,0.028C1856.068,277.167,1856.081,274.171,1854.241,272.315z"
						/>
				</g>
			</g>
			<g id="g8262">
				<g id="g8264">
					<path id="path8266" inkscape:connector-curvature="0" fill="#FFFFFF" d="M1846.031,289.319
						c-2.948-2.973-7.271-4.678-11.862-4.678c-4.591,0-8.914,1.705-11.863,4.679c-1.841,1.855-1.827,4.852,0.028,6.692
						c0.923,0.915,2.128,1.371,3.332,1.371c1.218,0,2.435-0.468,3.36-1.4c1.166-1.176,3.089-1.878,5.143-1.878
						c2.054,0,3.975,0.702,5.141,1.878c1.841,1.855,4.837,1.868,6.692,0.028C1847.859,294.17,1847.872,291.175,1846.031,289.319
						L1846.031,289.319z"/>
				</g>
			</g>
			<g id="g8268">
				<g id="g8270">
					<path id="path8272" inkscape:connector-curvature="0" fill="#FFFFFF" d="M1927.747,272.317
						c-4.942-4.984-12.259-7.844-20.073-7.844c-7.735,0-14.983,2.802-19.923,7.695c-11.631,9.951-13.913,21.193-13.773,28.886
						c0.132,7.268,2.432,12.784,3.102,14.242c1.468,4.555-0.449,6.513-2.032,7.591c-4.516,3.079-13.824,2.919-19.524-1.903
						c-1.996-1.688-4.982-1.439-6.669,0.557c-1.688,1.994-1.439,4.982,0.556,6.669c4.85,4.103,11.438,6.235,17.792,6.235
						c4.812,0,9.491-1.223,13.178-3.738c6.074-4.141,8.16-11.132,5.581-18.699c-0.071-0.209-0.156-0.411-0.255-0.608
						c-0.022-0.042-2.153-4.426-2.264-10.52c-0.15-8.261,3.411-15.537,10.585-21.625c0.104-0.088,0.203-0.179,0.298-0.275
						c3.131-3.158,8.122-5.042,13.351-5.042c5.229,0,10.22,1.885,13.352,5.043c1.84,1.855,4.836,1.869,6.692,0.029
						C1929.574,277.169,1929.587,274.172,1927.747,272.317L1927.747,272.317z"/>
				</g>
			</g>
			<g id="g8274">
				<g id="g8276">
					<path id="path8278" inkscape:connector-curvature="0" fill="#FFFFFF" d="M1919.538,289.319
						c-2.948-2.973-7.272-4.679-11.863-4.679c-4.591,0-8.914,1.705-11.862,4.679c-1.841,1.855-1.827,4.852,0.028,6.692
						c1.855,1.84,4.852,1.828,6.692-0.028c1.166-1.176,3.088-1.878,5.141-1.878c2.053,0,3.976,0.702,5.141,1.878
						c0.925,0.933,2.142,1.4,3.36,1.4c1.204,0,2.409-0.457,3.332-1.371C1921.365,294.172,1921.378,291.175,1919.538,289.319
						L1919.538,289.319z"/>
				</g>
			</g>
			<g id="g8280">
				<g id="g8282">
					<path id="path8284" inkscape:connector-curvature="0" fill="#FFFFFF" d="M1989.549,180.819
						c-3.111-6.293-9.145-11.32-16.556-13.793c-7.413-2.474-15.257-2.078-21.524,1.086c-2.333,1.178-3.27,4.024-2.09,6.357
						c1.178,2.333,4.024,3.269,6.357,2.092c3.97-2.005,9.301-2.213,14.261-0.557c4.96,1.656,9.097,5.024,11.068,9.01
						c0.825,1.669,2.502,2.636,4.246,2.636c0.704,0,1.42-0.158,2.093-0.491C1989.746,186,1990.706,183.162,1989.549,180.819z"/>
				</g>
			</g>
			<g id="g8286">
				<g id="g8288">
					<path id="path8290" inkscape:connector-curvature="0" fill="#FFFFFF" d="M1976.378,194.349
						c-1.855-3.754-5.417-6.739-9.771-8.193c-4.354-1.454-8.996-1.205-12.734,0.683c-2.333,1.178-3.27,4.024-2.091,6.357
						c1.178,2.333,4.024,3.269,6.357,2.092c1.478-0.746,3.523-0.804,5.472-0.153c1.948,0.65,3.549,1.925,4.283,3.409
						c0.825,1.669,2.502,2.636,4.246,2.636c0.703,0,1.419-0.158,2.093-0.491C1976.576,199.53,1977.537,196.692,1976.378,194.349
						L1976.378,194.349z"/>
				</g>
			</g>
			<g id="g8292">
				<g id="g8294">
					<path id="path8296" inkscape:connector-curvature="0" fill="#FFFFFF" d="M2059.273,204.091
						c-3.11-6.294-9.145-11.322-16.557-13.796c-7.336-2.449-15.099-2.086-21.336,0.991c-21.577,8.76-24.996,28.166-23.777,37.571
						c-0.063,4.753-2.49,5.997-4.33,6.519c-5.256,1.492-14.037-1.607-17.917-7.986c-1.358-2.233-4.269-2.942-6.502-1.584
						c-2.233,1.358-2.943,4.269-1.584,6.502c4.765,7.835,14.267,12.92,23.031,12.918c1.905,0,3.776-0.24,5.555-0.745
						c7.072-2.007,11.265-7.976,11.214-15.972c-0.001-0.22-0.018-0.439-0.05-0.657c-0.01-0.047-0.641-4.878,1.183-10.694
						c2.473-7.884,8.154-13.658,16.886-17.162c0.125-0.05,0.249-0.106,0.37-0.167c3.97-2.004,9.302-2.212,14.26-0.557
						c4.96,1.656,9.098,5.024,11.069,9.011c1.158,2.343,3.996,3.304,6.34,2.146C2059.47,209.272,2060.431,206.434,2059.273,204.091
						L2059.273,204.091z"/>
				</g>
			</g>
			<g id="g8298">
				<g id="g8300">
					<path id="path8302" inkscape:connector-curvature="0" fill="#FFFFFF" d="M2046.103,217.621
						c-1.854-3.754-5.416-6.741-9.77-8.194c-4.355-1.453-8.996-1.205-12.734,0.682c-2.333,1.178-3.27,4.024-2.091,6.357
						c1.177,2.333,4.024,3.27,6.356,2.092c1.479-0.746,3.523-0.803,5.472-0.153c1.948,0.65,3.549,1.925,4.283,3.409
						c0.825,1.669,2.502,2.637,4.246,2.637c0.704,0,1.419-0.158,2.093-0.491C2046.3,222.802,2047.261,219.965,2046.103,217.621z"/>
				</g>
			</g>
			<g id="g8304">
				<g id="g8306">
					<path id="path8308" inkscape:connector-curvature="0" fill="#FFFFFF" d="M2092.728,158.089
						c-1.319-1.266-3.248-1.66-4.957-1.011c-17.49,6.638-44.886,5.244-71.498-3.638c-7.64-2.55-14.999-5.624-21.876-9.137
						c-2.294-1.172-5.197-0.415-6.444,1.838c-1.302,2.35-0.393,5.293,1.98,6.508c7.343,3.762,15.197,7.048,23.345,9.768
						c24.857,8.296,49.777,10.448,68.815,6.189l-26.242,78.624c-0.827,2.479,0.511,5.16,2.991,5.987
						c2.479,0.827,5.16-0.511,5.987-2.991L2093.941,163C2094.518,161.267,2094.046,159.355,2092.728,158.089z"/>
				</g>
			</g>
			<g id="g8310">
				<g id="g8312">
					<path id="path8314" inkscape:connector-curvature="0" fill="#FFFFFF" d="M2053.738,268.827
						c-2.379-1.076-5.185-0.019-6.261,2.363c-6.812,15.07-18.939,27.059-34.145,33.759c-15.31,6.746-32.489,7.541-48.374,2.239
						c-6.21-2.073-12.032-5.002-17.338-8.722v-24.232c8.047,0.178,17.336,1.919,26.658,5.031c12.854,4.29,24.039,10.6,30.687,17.313
						c1.119,1.13,2.731,1.622,4.293,1.31c1.56-0.313,2.858-1.388,3.456-2.863c0.198-0.49,4.793-12.135-0.919-24.527
						c-4.443-9.64-13.673-16.857-27.432-21.45c-9.129-3.047-24.429-6.078-36.743,1.76c0,0,0-28.401,0-28.442
						c0-3.874-4.725-6.191-7.734-3.658c-4.209,3.543-9.127,6.253-14.116,8.529c-0.649,0.296-5.193,1.722-5.298,2.215
						c0.527-2.472,1.194-4.918,1.997-7.323l32.077-96.106c4.805,5.613,10.913,11.094,18.03,16.15
						c2.131,1.514,5.086,1.014,6.599-1.117c1.514-2.131,1.014-5.085-1.117-6.598c-9.294-6.603-16.603-13.881-21.134-21.049
						c-0.977-1.545-2.757-2.389-4.57-2.169c-1.814,0.22-3.34,1.466-3.918,3.199l-34.942,104.694
						c-1.486,4.452-2.556,9.032-3.209,13.656c-11.874,3.28-25.416,5.097-39.36,5.097c-7.392,0-14.731-0.498-21.811-1.479
						c-2.591-0.359-4.979,1.449-5.337,4.038c-0.359,2.589,1.449,4.978,4.038,5.337c7.51,1.04,15.285,1.568,23.111,1.568
						c26.206,0,50.525-5.848,67.234-15.915v30.278v7.868v31.295v31.861c0,37.072-30.161,67.234-67.234,67.234
						c-37.073,0-67.234-30.163-67.234-67.237V231.421c6.917,4.154,15.246,7.656,24.553,10.296c2.514,0.713,5.13-0.747,5.844-3.261
						c0.713-2.515-0.747-5.13-3.261-5.844c-11.867-3.366-21.852-8.177-28.874-13.912c-1.416-1.156-3.37-1.393-5.022-0.61
						c-1.651,0.783-2.704,2.447-2.704,4.275v110.371c0,42.292,34.407,76.698,76.699,76.698c42.291,0,76.698-34.407,76.698-76.698
						v-23.047c4.526,2.632,9.323,4.803,14.342,6.478c7.92,2.643,16.119,3.957,24.302,3.957c10.54,0,21.05-2.182,30.883-6.514
						c17.344-7.642,31.178-21.322,38.953-38.521C2057.178,272.707,2056.12,269.904,2053.738,268.827z M1947.621,263.348
						c7.071-8.497,18.698-10.346,33.746-5.323c11.12,3.711,18.446,9.201,21.778,16.316c1.66,3.548,2.094,7.065,2.026,9.981
						c-7.436-5.523-17.194-10.463-27.896-14.035c-10.268-3.427-20.599-5.332-29.655-5.512L1947.621,263.348L1947.621,263.348
						L1947.621,263.348z"/>
				</g>
			</g>
		</g>
	</g>
</g>
</svg>
