<?xml version="1.0" encoding="utf-8"?>
<!-- Generator: Adobe Illustrator 16.0.0, SVG Export Plug-In . SVG Version: 6.00 Build 0)  -->
<!DOCTYPE svg PUBLIC "-//W3C//DTD SVG 1.1//EN" "http://www.w3.org/Graphics/SVG/1.1/DTD/svg11.dtd">
<svg version="1.1"
	 id="svg8694" xmlns:inkscape="http://www.inkscape.org/namespaces/inkscape" xmlns:dc="http://purl.org/dc/elements/1.1/" xmlns:sodipodi="http://sodipodi.sourceforge.net/DTD/sodipodi-0.dtd" xmlns:svg="http://www.w3.org/2000/svg" xmlns:cc="http://creativecommons.org/ns#" xmlns:rdf="http://www.w3.org/1999/02/22-rdf-syntax-ns#" sodipodi:docname="inform.svg" inkscape:version="0.91 r13725"
	 xmlns="http://www.w3.org/2000/svg" xmlns:xlink="http://www.w3.org/1999/xlink" x="0px" y="0px" width="500px" height="500px"
	 viewBox="0 0 500 500" enable-background="new 0 0 500 500" xml:space="preserve">
<sodipodi:namedview  showgrid="false" borderopacity="1.0" id="base" pagecolor="#ffffff" inkscape:zoom="1.4" inkscape:cy="248.39267" inkscape:cx="310.22037" bordercolor="#666666" units="px" inkscape:snap-page="true" inkscape:snap-text-baseline="true" inkscape:object-paths="true" inkscape:object-nodes="true" inkscape:snap-smooth-nodes="true" inkscape:snap-center="true" inkscape:snap-object-midpoints="true" inkscape:window-maximized="1" inkscape:window-y="-8" inkscape:window-x="-8" inkscape:window-height="1058" inkscape:document-units="px" inkscape:pageopacity="0.0" inkscape:window-width="1920" inkscape:pageshadow="2" inkscape:current-layer="_x31_" inkscape:snap-intersection-paths="true">
	</sodipodi:namedview>
<g id="layer1" transform="translate(0,-552.36216)" inkscape:groupmode="layer" inkscape:label="Layer 1">
	<g id="_x31_" transform="translate(-688.31129,-319.64537)">
		<g id="_x31_0" transform="matrix(1.6778467,0,0,1.6778467,-1152.6624,100.88513)">
			<g id="g8334">
				<g id="g8336">
					<path id="path8338" inkscape:connector-curvature="0" fill="#FFFFFF" d="M1354.366,472.205H1138.08
						c-22.529,0-40.856,18.328-40.856,40.857v188.237c0,2.844,2.305,5.15,5.15,5.15s5.15-2.305,5.15-5.15V513.061
						c0-16.849,13.708-30.557,30.557-30.557h189.208c-8.442,7.491-13.777,18.41-13.777,30.557v221.617h-205.988v-16.214
						c0-2.844-2.305-5.15-5.15-5.15s-5.15,2.305-5.15,5.15v21.363c0,2.844,2.305,5.15,5.15,5.15h216.287
						c2.845,0,5.15-2.306,5.15-5.15V513.061c0-16.849,13.708-30.557,30.557-30.557c16.849-0.001,30.557,13.707,30.557,30.557v97.344
						h-44.62c-2.845,0-5.15,2.306-5.15,5.15c0,2.844,2.305,5.15,5.15,5.15h49.77c2.845,0,5.15-2.305,5.15-5.15V513.061
						C1395.224,490.533,1376.895,472.205,1354.366,472.205L1354.366,472.205z"/>
				</g>
			</g>
			<g id="g8340">
				<g id="g8342">
					<path id="path8344" inkscape:connector-curvature="0" fill="#FFFFFF" d="M1210.704,543.716c2.845,0,5.15-2.305,5.15-5.15
						v-19.431c0-2.844-2.306-5.15-5.15-5.15h-83.627c-2.845,0-5.15,2.305-5.15,5.15v98.708c0,2.844,2.305,5.15,5.15,5.15h83.627
						c2.845,0,5.15-2.305,5.15-5.15v-59.365c0-2.844-2.305-5.15-5.15-5.15s-5.15,2.305-5.15,5.15v54.216h-73.328v-88.409h73.328
						v14.281C1205.554,541.41,1207.859,543.716,1210.704,543.716z"/>
				</g>
			</g>
			<g id="g8346">
				<g id="g8348">
					<path id="path8350" inkscape:connector-curvature="0" fill="#FFFFFF" d="M1296.38,513.986h-62.136
						c-2.845,0-5.15,2.305-5.15,5.15c0,2.844,2.305,5.15,5.15,5.15h62.137c2.845,0,5.15-2.306,5.15-5.15
						C1301.531,516.292,1299.223,513.986,1296.38,513.986z"/>
				</g>
			</g>
			<g id="g8352">
				<g id="g8354">
					<path id="path8356" inkscape:connector-curvature="0" fill="#FFFFFF" d="M1296.38,538.663h-34.707
						c-2.845,0-5.15,2.305-5.15,5.15c0,2.844,2.305,5.15,5.15,5.15h34.707c2.845,0,5.15-2.306,5.15-5.15
						C1301.529,540.969,1299.223,538.663,1296.38,538.663z"/>
				</g>
			</g>
			<g id="g8358">
				<g id="g8360">
					<path id="path8362" inkscape:connector-curvature="0" fill="#FFFFFF" d="M1244.507,538.663h-10.264
						c-2.845,0-5.15,2.305-5.15,5.15c0,2.844,2.305,5.15,5.15,5.15h10.264c2.845,0,5.15-2.306,5.15-5.15
						S1247.35,538.663,1244.507,538.663z"/>
				</g>
			</g>
			<g id="g8364">
				<g id="g8366">
					<path id="path8368" inkscape:connector-curvature="0" fill="#FFFFFF" d="M1296.38,563.34h-62.136
						c-2.845,0-5.15,2.306-5.15,5.15c0,2.844,2.305,5.15,5.15,5.15h62.137c2.845,0,5.15-2.305,5.15-5.15
						C1301.531,565.646,1299.224,563.34,1296.38,563.34z"/>
				</g>
			</g>
			<g id="g8370">
				<g id="g8372">
					<path id="path8374" inkscape:connector-curvature="0" fill="#FFFFFF" d="M1296.38,612.694h-62.136
						c-2.845,0-5.15,2.306-5.15,5.15s2.305,5.15,5.15,5.15h62.137c2.845,0,5.15-2.305,5.15-5.15S1299.224,612.694,1296.38,612.694z"
						/>
				</g>
			</g>
			<g id="g8376">
				<g id="g8378">
					<path id="path8380" inkscape:connector-curvature="0" fill="#FFFFFF" d="M1296.38,588.017h-15.481
						c-2.845,0-5.15,2.305-5.15,5.15c0,2.844,2.305,5.15,5.15,5.15h15.481c2.845,0,5.15-2.306,5.15-5.15
						C1301.529,590.323,1299.223,588.017,1296.38,588.017z"/>
				</g>
			</g>
			<g id="g8382">
				<g id="g8384">
					<path id="path8386" inkscape:connector-curvature="0" fill="#FFFFFF" d="M1263.732,588.017h-29.489
						c-2.845,0-5.15,2.305-5.15,5.15c0,2.844,2.305,5.15,5.15,5.15h29.489c2.845,0,5.15-2.306,5.15-5.15
						C1268.882,590.323,1266.577,588.017,1263.732,588.017z"/>
				</g>
			</g>
			<g id="g8388">
				<g id="g8390">
					<path id="path8392" inkscape:connector-curvature="0" fill="#FFFFFF" d="M1364.944,536.374h-24.64
						c-2.845,0-5.15,2.305-5.15,5.15c0,2.844,2.305,5.15,5.15,5.15h24.64c2.845,0,5.15-2.305,5.15-5.15
						C1370.094,538.68,1367.789,536.374,1364.944,536.374z"/>
				</g>
			</g>
			<g id="g8394">
				<g id="g8396">
					<path id="path8398" inkscape:connector-curvature="0" fill="#FFFFFF" d="M1364.944,561.051h-24.64
						c-2.845,0-5.15,2.305-5.15,5.15c0,2.844,2.305,5.15,5.15,5.15h24.64c2.845,0,5.15-2.306,5.15-5.15
						C1370.094,563.357,1367.789,561.051,1364.944,561.051z"/>
				</g>
			</g>
			<g id="g8400">
				<g id="g8402">
					<path id="path8404" inkscape:connector-curvature="0" fill="#FFFFFF" d="M1364.944,585.728h-24.64
						c-2.845,0-5.15,2.305-5.15,5.15s2.305,5.15,5.15,5.15h24.64c2.845,0,5.15-2.306,5.15-5.15
						C1370.094,588.034,1367.789,585.728,1364.944,585.728z"/>
				</g>
			</g>
			<g id="g8406">
				<g id="g8408">
					<path id="path8410" inkscape:connector-curvature="0" fill="#FFFFFF" d="M1296.38,662.047h-83.627
						c-2.845,0-5.15,2.305-5.15,5.15v49.354c0,2.844,2.305,5.15,5.15,5.15h83.627c2.845,0,5.15-2.306,5.15-5.15v-49.354
						C1301.529,664.354,1299.223,662.047,1296.38,662.047z M1291.229,711.401h-73.328v-39.054h73.328V711.401z"/>
				</g>
			</g>
			<g id="g8412">
				<g id="g8414">
					<path id="path8416" inkscape:connector-curvature="0" fill="#FFFFFF" d="M1154.558,637.371h-27.481
						c-2.845,0-5.15,2.305-5.15,5.15c0,2.845,2.305,5.15,5.15,5.15h27.481c2.845,0,5.15-2.305,5.15-5.15
						C1159.708,639.676,1157.403,637.371,1154.558,637.371z"/>
				</g>
			</g>
			<g id="g8418">
				<g id="g8420">
					<path id="path8422" inkscape:connector-curvature="0" fill="#FFFFFF" d="M1296.38,637.371h-125.343
						c-2.845,0-5.15,2.305-5.15,5.15c0,2.845,2.305,5.15,5.15,5.15h125.343c2.845,0,5.15-2.305,5.15-5.15
						C1301.53,639.676,1299.224,637.371,1296.38,637.371z"/>
				</g>
			</g>
			<g id="g8424">
				<g id="g8426">
					<path id="path8428" inkscape:connector-curvature="0" fill="#FFFFFF" d="M1189.213,662.047h-62.136
						c-2.845,0-5.15,2.305-5.15,5.15c0,2.844,2.305,5.15,5.15,5.15h62.136c2.845,0,5.15-2.305,5.15-5.15
						C1194.363,664.353,1192.057,662.047,1189.213,662.047z"/>
				</g>
			</g>
			<g id="g8430">
				<g id="g8432">
					<path id="path8434" inkscape:connector-curvature="0" fill="#FFFFFF" d="M1161.424,711.401h-34.347
						c-2.845,0-5.15,2.305-5.15,5.15c0,2.845,2.305,5.15,5.15,5.15h34.347c2.845,0,5.15-2.306,5.15-5.15
						C1166.574,713.707,1164.269,711.401,1161.424,711.401z"/>
				</g>
			</g>
			<g id="g8436">
				<g id="g8438">
					<path id="path8440" inkscape:connector-curvature="0" fill="#FFFFFF" d="M1189.213,711.401h-10.623
						c-2.845,0-5.15,2.305-5.15,5.15c0,2.845,2.305,5.15,5.15,5.15h10.623c2.845,0,5.15-2.306,5.15-5.15
						C1194.363,713.707,1192.057,711.401,1189.213,711.401z"/>
				</g>
			</g>
			<g id="g8442">
				<g id="g8444">
					<path id="path8446" inkscape:connector-curvature="0" fill="#FFFFFF" d="M1189.213,686.724h-62.136
						c-2.845,0-5.15,2.305-5.15,5.15s2.305,5.15,5.15,5.15h62.136c2.845,0,5.15-2.306,5.15-5.15S1192.057,686.724,1189.213,686.724z
						"/>
				</g>
			</g>
		</g>
	</g>
</g>
</svg>
