<?xml version="1.0" encoding="utf-8"?>
<!-- Generator: Adobe Illustrator 16.0.0, SVG Export Plug-In . SVG Version: 6.00 Build 0)  -->
<!DOCTYPE svg PUBLIC "-//W3C//DTD SVG 1.1//EN" "http://www.w3.org/Graphics/SVG/1.1/DTD/svg11.dtd">
<svg version="1.1"
	 id="svg8694" xmlns:inkscape="http://www.inkscape.org/namespaces/inkscape" xmlns:dc="http://purl.org/dc/elements/1.1/" xmlns:sodipodi="http://sodipodi.sourceforge.net/DTD/sodipodi-0.dtd" xmlns:svg="http://www.w3.org/2000/svg" xmlns:cc="http://creativecommons.org/ns#" xmlns:rdf="http://www.w3.org/1999/02/22-rdf-syntax-ns#" sodipodi:docname="kids.svg" inkscape:version="0.91 r13725"
	 xmlns="http://www.w3.org/2000/svg" xmlns:xlink="http://www.w3.org/1999/xlink" x="0px" y="0px" width="500px" height="500px"
	 viewBox="0 0 500 500" enable-background="new 0 0 500 500" xml:space="preserve">
<sodipodi:namedview  showgrid="false" borderopacity="1.0" id="base" pagecolor="#ffffff" inkscape:zoom="1.4" inkscape:cy="248.39267" inkscape:cx="310.22037" bordercolor="#666666" units="px" inkscape:snap-page="true" inkscape:snap-text-baseline="true" inkscape:object-paths="true" inkscape:object-nodes="true" inkscape:snap-smooth-nodes="true" inkscape:snap-center="true" inkscape:snap-object-midpoints="true" inkscape:window-maximized="1" inkscape:window-y="-8" inkscape:window-x="-8" inkscape:window-height="1058" inkscape:document-units="px" inkscape:pageopacity="0.0" inkscape:window-width="1920" inkscape:pageshadow="2" inkscape:current-layer="_x31_" inkscape:snap-intersection-paths="true">
	</sodipodi:namedview>
<g id="layer1" transform="translate(0,-552.36216)" inkscape:groupmode="layer" inkscape:label="Layer 1">
	<g id="_x31_" transform="translate(-688.31129,-319.64537)">
		<g id="_x31_1" transform="matrix(1.6669223,0,0,1.6669223,-1722.4318,101.46269)">
			<g id="g8449">
				<circle id="circle8451" fill="#FFFFFF" cx="1533.65" cy="642.962" r="11.91"/>
				<circle id="circle8453" fill="#FFFFFF" cx="1658.75" cy="642.962" r="11.91"/>
				<path id="path8455" inkscape:connector-curvature="0" fill="#FFFFFF" d="M1746.178,637.907
					c0-17.252-12.505-31.628-28.926-34.566v-5.206c0-66.748-54.303-121.051-121.051-121.051
					c-66.748,0-121.051,54.303-121.051,121.051v5.206c-16.421,2.939-28.926,17.315-28.926,34.566
					c0,17.401,12.721,31.879,29.35,34.642c2.34,26.671,14.543,46.371,36.38,58.631c19.42,10.903,46.976,16.202,84.248,16.202
					c37.271,0,64.828-5.3,84.248-16.202c21.836-12.26,34.039-31.959,36.379-58.631
					C1733.457,669.787,1746.178,655.308,1746.178,637.907z M1458.624,637.907c0-10.381,7-19.153,16.525-21.859v43.718
					C1465.624,657.061,1458.624,648.289,1458.624,637.907z M1704.853,662.793c0,27.23-9.968,46.063-30.475,57.575
					c-17.517,9.835-43.089,14.615-78.177,14.615c-35.088,0-60.661-4.78-78.177-14.615c-20.506-11.513-30.474-30.346-30.474-57.575
					v-64.657c0-49.064,32.693-90.629,77.436-104.074c34.087,0.431,52.24,25.037,52.24,42.854c0,13.646-11.102,24.749-24.749,24.749
					c-10.233,0-18.559-8.326-18.559-18.559c0-7.503,6.104-13.607,13.607-13.607c3.424,0,6.2-2.776,6.2-6.2s-2.776-6.2-6.2-6.2
					c-14.341,0-26.007,11.667-26.007,26.007c0,17.071,13.888,30.959,30.959,30.959c20.484,0,37.149-16.665,37.149-37.149
					c0-12.869-6.465-26.714-17.296-37.037c-4.332-4.129-9.26-7.6-14.64-10.375c59.225,0.801,107.161,49.22,107.161,108.632v64.657
					H1704.853L1704.853,662.793z M1717.253,659.767v-43.718c9.526,2.705,16.526,11.478,16.526,21.859
					C1733.778,648.289,1726.777,657.061,1717.253,659.767z"/>
				<path id="path8457" inkscape:connector-curvature="0" fill="#FFFFFF" d="M1620.179,660.038
					c-13.221,13.221-34.735,13.221-47.956,0c-2.422-2.421-6.346-2.421-8.768,0c-2.421,2.421-2.421,6.347,0,8.768
					c9.028,9.028,20.888,13.542,32.747,13.542s23.718-4.514,32.747-13.542c2.421-2.421,2.421-6.347,0-8.768
					C1626.525,657.617,1622.6,657.617,1620.179,660.038L1620.179,660.038z"/>
			</g>
		</g>
	</g>
</g>
</svg>
