<?xml version="1.0" encoding="utf-8"?>
<!-- Generator: Adobe Illustrator 16.0.0, SVG Export Plug-In . SVG Version: 6.00 Build 0)  -->
<!DOCTYPE svg PUBLIC "-//W3C//DTD SVG 1.1//EN" "http://www.w3.org/Graphics/SVG/1.1/DTD/svg11.dtd">
<svg version="1.1"
	 id="svg8694" xmlns:inkscape="http://www.inkscape.org/namespaces/inkscape" xmlns:dc="http://purl.org/dc/elements/1.1/" xmlns:sodipodi="http://sodipodi.sourceforge.net/DTD/sodipodi-0.dtd" xmlns:svg="http://www.w3.org/2000/svg" xmlns:cc="http://creativecommons.org/ns#" xmlns:rdf="http://www.w3.org/1999/02/22-rdf-syntax-ns#" sodipodi:docname="multidisciplinary.svg" inkscape:version="0.91 r13725"
	 xmlns="http://www.w3.org/2000/svg" xmlns:xlink="http://www.w3.org/1999/xlink" x="0px" y="0px" width="500px" height="500px"
	 viewBox="0 0 500 500" enable-background="new 0 0 500 500" xml:space="preserve">
<sodipodi:namedview  showgrid="false" borderopacity="1.0" id="base" pagecolor="#ffffff" inkscape:zoom="1.4" inkscape:cy="248.39267" inkscape:cx="310.22037" bordercolor="#666666" units="px" inkscape:snap-page="true" inkscape:snap-text-baseline="true" inkscape:object-paths="true" inkscape:object-nodes="true" inkscape:snap-smooth-nodes="true" inkscape:snap-center="true" inkscape:snap-object-midpoints="true" inkscape:window-maximized="1" inkscape:window-y="-8" inkscape:window-x="-8" inkscape:window-height="1058" inkscape:document-units="px" inkscape:pageopacity="0.0" inkscape:window-width="1920" inkscape:pageshadow="2" inkscape:current-layer="_x31_" inkscape:snap-intersection-paths="true">
	</sodipodi:namedview>
<g id="layer1" transform="translate(0,-552.36216)" inkscape:groupmode="layer" inkscape:label="Layer 1">
	<g id="_x31_" transform="translate(-688.31129,-319.64537)">
		<g id="g13523" transform="matrix(0.99840256,0,0,0.99840256,731.93749,727.81182)">
			<path id="path13525" inkscape:connector-curvature="0" fill="#FFFFFF" d="M423,348.072V341h-15.493l-3.857-27.408
				c-0.022-0.149-0.047-0.298-0.076-0.445c-0.777-3.829-3.262-7.188-6.647-8.986c-0.104-0.055-0.209-0.108-0.316-0.159
				l-50.703-23.929c-4.506-13.721-8.805-25.546-13.135-36.126c-21.246-50.357-49.003-77.944-99.003-98.394
				c-3.161-1.293-6.777-1.187-9.924,0.289c-2.954,1.386-5.26,3.814-6.497,6.837c-15.632,38.217-19.268,66.668-12.531,98.108
				l-12.75,9.608c-1.861-0.835-3.781-1.62-5.777-2.361l-3.465-22.77c-0.815-6.24-6.28-10.926-12.778-10.926h-32.988
				c-5.961,0-11.136,4.016-12.609,9.775c-2.104,7.91-3.084,16.075-3.976,24.014c-1.911,0.729-3.807,1.521-5.682,2.376
				l-16.825-13.045c-0.031-0.024-0.063-0.048-0.095-0.072c-2.604-1.954-5.497-2.986-8.365-2.986c-3.247,0-7.479,1.053-20.175,13.633
				c-6.396,6.338-12.542,13.269-14.605,16.105c-0.749,1.047-2.736,3.829-2.736,7.778c0,2.086,0.563,5.228,3.233,8.379
				c4.191,5.098,8.607,10.564,12.906,16.396c-0.984,2.084-1.865,4.153-2.651,6.227l-23.153,3.485
				c-0.119,0.018-0.237,0.039-0.354,0.062c-5.63,1.126-10.041,6.707-10.041,12.704V341H11.688H1.016l-44.712,152H-1V645H423V493
				h34.104L423,348.072z M72.198,327.074c2.84-0.427,5.186-2.439,6.042-5.18c1.282-4.104,3.001-8.153,5.254-12.38
				c1.335-2.504,1.142-5.548-0.498-7.863c-5.074-7.163-10.325-13.737-15.292-19.797c4.349-5.434,16.677-18.193,21.947-21.865
				l19.63,15.221c2.308,1.79,5.447,2.076,8.041,0.734c3.958-2.046,8.238-3.834,12.38-5.17c2.8-0.903,4.813-3.36,5.149-6.282
				l0.375-3.327c0.82-7.335,1.667-14.904,3.369-21.828h29.677l3.87,25.428c0.428,2.81,2.407,5.137,5.112,6.009
				c4.51,1.455,8.511,3.098,12.229,5.021c2.561,1.326,5.657,1.064,7.96-0.671l20.02-15.087l1.289,1.188
				c6.689,6.15,14.932,13.728,20.148,20.654c-2.024,2.705-4.103,5.353-6.29,8.139c-2.85,3.63-5.796,7.384-8.609,11.274
				c-1.677,2.317-1.89,5.387-0.548,7.914c2.367,4.458,4.23,8.906,5.538,13.22c0.838,2.764,3.189,4.802,6.043,5.238l25.138,3.846V341
				H255h-15.992h-40.191c-2.479-22.786-21.83-40.582-45.266-40.582c-23.436,0-42.786,17.796-45.265,40.582h-9.974H75.688H46.931
				v-10.123L72.198,327.074L72.198,327.074z M183.684,341H175h-35.312H123.42c2.376-14.489,14.98-25.582,30.132-25.582
				C168.704,315.418,181.307,326.511,183.684,341z M-22.304,477L12.984,357h255.32L233.015,477H-22.304L-22.304,477z M271,629H15
				V493h229.984L271,404.56V629z M275.173,341v-11.239c0-6.204-4.517-11.679-10.506-12.735c-0.057-0.01-0.112-0.019-0.167-0.027
				l-19.25-2.945c-0.405-0.801-0.814-1.605-1.213-2.402c-1.238-2.475-2.435-4.908-3.585-7.284c1.32-1.713,2.648-3.417,3.959-5.087
				c2.416-3.077,4.912-6.258,7.301-9.49c0.025-0.034,0.051-0.068,0.074-0.102c1.739-2.436,2.584-4.979,2.584-7.774
				c0-2.971-0.884-5.659-2.56-7.799c-6.056-8.441-15.393-17.025-22.905-23.932l-2.504-2.307c-0.068-0.063-0.139-0.126-0.209-0.187
				c-2.141-1.835-4.713-2.953-7.35-3.224c-5.119-26.747-1.784-50.823,11.561-84.07c44.42,18.668,69.364,43.916,88.516,89.308
				c4.478,10.94,8.966,23.397,13.725,38.083c0.638,1.969,2.062,3.587,3.934,4.471l52.4,24.731L392.358,341h-13.806h-55.104H295h-16
				H275.173L275.173,341z M406.999,629H287V417.928L304.664,493h102.335V629z M317.336,477L289.104,357h119.56L436.896,477H317.336z
				"/>
			<path id="path13527" inkscape:connector-curvature="0" fill="#FFFFFF" d="M262.167,194.983
				c-5.562-2.276-11.677-2.248-17.221,0.078c-5.542,2.325-9.849,6.668-12.123,12.229c-4.697,11.483,0.824,24.646,12.309,29.343
				c2.778,1.137,5.656,1.675,8.487,1.675c8.872,0,17.296-5.279,20.856-13.983C279.171,212.843,273.65,199.68,262.167,194.983
				L262.167,194.983z M260.592,218.647c-1.565,3.827-5.953,5.667-9.782,4.102c-3.826-1.565-5.667-5.953-4.102-9.781l0,0
				c0.757-1.853,2.193-3.3,4.042-4.075c0.936-0.393,1.919-0.588,2.903-0.588c0.96,0,1.921,0.187,2.836,0.561
				C260.316,210.432,262.156,214.82,260.592,218.647L260.592,218.647z"/>
		</g>
	</g>
</g>
</svg>
