<?xml version="1.0" encoding="utf-8"?>
<!-- Generator: Adobe Illustrator 16.0.0, SVG Export Plug-In . SVG Version: 6.00 Build 0)  -->
<!DOCTYPE svg PUBLIC "-//W3C//DTD SVG 1.1//EN" "http://www.w3.org/Graphics/SVG/1.1/DTD/svg11.dtd">
<svg version="1.1"
	 id="svg8694" xmlns:inkscape="http://www.inkscape.org/namespaces/inkscape" xmlns:dc="http://purl.org/dc/elements/1.1/" xmlns:sodipodi="http://sodipodi.sourceforge.net/DTD/sodipodi-0.dtd" xmlns:svg="http://www.w3.org/2000/svg" xmlns:cc="http://creativecommons.org/ns#" xmlns:rdf="http://www.w3.org/1999/02/22-rdf-syntax-ns#" sodipodi:docname="music.svg" inkscape:version="0.91 r13725"
	 xmlns="http://www.w3.org/2000/svg" xmlns:xlink="http://www.w3.org/1999/xlink" x="0px" y="0px" width="500px" height="500px"
	 viewBox="0 0 500 500" enable-background="new 0 0 500 500" xml:space="preserve">
<sodipodi:namedview  showgrid="false" borderopacity="1.0" id="base" pagecolor="#ffffff" inkscape:zoom="1.4" inkscape:cy="248.39267" inkscape:cx="310.22037" bordercolor="#666666" units="px" inkscape:snap-page="true" inkscape:snap-text-baseline="true" inkscape:object-paths="true" inkscape:object-nodes="true" inkscape:snap-smooth-nodes="true" inkscape:snap-center="true" inkscape:snap-object-midpoints="true" inkscape:window-maximized="1" inkscape:window-y="-8" inkscape:window-x="-8" inkscape:window-height="1058" inkscape:document-units="px" inkscape:pageopacity="0.0" inkscape:window-width="1920" inkscape:pageshadow="2" inkscape:current-layer="_x31_" inkscape:snap-intersection-paths="true">
	</sodipodi:namedview>
<g id="layer1" transform="translate(0,-552.36216)" inkscape:groupmode="layer" inkscape:label="Layer 1">
	<g id="_x31_" transform="translate(-688.31129,-319.64537)">
		<g id="_x38_" transform="matrix(1.6666778,0,0,1.6666778,21.268498,108.91076)">
			<path id="path8324" inkscape:connector-curvature="0" fill="#FFFFFF" d="M700.221,623.2c0-82.707-67.287-149.995-149.995-149.995
				c-82.711,0.001-150.003,67.288-150.003,149.995c0,14.277,2.005,28.375,5.952,41.941c-8.034,20.325-3.854,44.399,12.557,60.81
				c10.673,10.673,24.866,16.553,39.964,16.553c14.023,0,27.261-5.078,37.627-14.353c1.309,0.336,2.664,0.528,4.05,0.528
				c4.317,0,8.377-1.681,11.431-4.735l8.468-8.469c6.303-6.303,6.303-16.557,0-22.861l-68.204-68.204
				c-3.053-3.053-7.112-4.734-11.431-4.734c-4.319,0-8.377,1.681-11.431,4.736l-8.467,8.468c-3.054,3.053-4.736,7.113-4.736,11.43
				c0,1.388,0.192,2.741,0.528,4.05c-0.892,1-1.733,2.027-2.542,3.073c-1.904-9.24-2.866-18.692-2.866-28.233
				c0-43.697,20.261-82.743,51.876-108.262l1.944,3.039c3.433,5.355,9.317,8.302,15.301,8.301c3.211,0,6.451-0.849,9.355-2.629
				c18.234-11.147,39.198-17.038,60.626-17.038c21.424,0,42.383,5.891,60.62,17.039c8.338,5.09,19.397,2.542,24.657-5.678
				l1.941-3.036c31.614,25.519,51.874,64.567,51.874,108.263c0,9.535-0.961,18.982-2.864,28.22c-0.81-1.044-1.653-2.068-2.542-3.06
				c0.337-1.309,0.528-2.664,0.528-4.051c0-4.318-1.681-8.378-4.735-11.431l-8.468-8.468c-6.302-6.301-16.557-6.303-22.861,0
				l-68.204,68.204c-6.303,6.303-6.303,16.558,0,22.861l8.469,8.469c3.053,3.053,7.113,4.735,11.431,4.735
				c1.387,0,2.742-0.192,4.05-0.528c10.367,9.274,23.604,14.353,37.627,14.353c15.098,0,29.291-5.878,39.964-16.553
				c10.675-10.676,16.554-24.869,16.553-39.966c0-7.271-1.378-14.328-3.985-20.888C698.221,651.544,700.221,637.46,700.221,623.2
				L700.221,623.2z M426.442,718.242c-16.481-16.48-17.678-42.531-3.616-60.417l64.036,64.036c-8.002,6.308-17.816,9.74-28.164,9.74
				C446.51,731.6,435.056,726.856,426.442,718.242z M428.449,640.586l8.468-8.468c0.994-0.994,2.316-1.542,3.721-1.542
				s2.728,0.547,3.722,1.542l68.204,68.204c2.052,2.052,2.052,5.391,0,7.444l-8.468,8.468c-0.994,0.994-2.316,1.542-3.721,1.542
				c-1.406,0-2.728-0.547-3.722-1.542l-68.205-68.204c-0.994-0.994-1.542-2.316-1.542-3.722
				C426.906,642.902,427.454,641.581,428.449,640.586L428.449,640.586z M626.32,512.097c-2.087,3.263-6.48,4.271-9.789,2.251
				c-19.946-12.193-42.874-18.639-66.304-18.639c-23.436,0-46.366,6.445-66.318,18.642c-3.3,2.023-7.691,1.009-9.783-2.254
				l-2.36-3.688c22.35-15.323,49.375-24.302,78.461-24.302c29.083,0,56.105,8.979,78.453,24.3L626.32,512.097L626.32,512.097z
				 M596.351,716.234l-8.468-8.468c-2.052-2.052-2.052-5.391,0-7.444l68.204-68.204c1.027-1.026,2.375-1.539,3.723-1.539
				c1.347,0,2.696,0.513,3.722,1.539l8.468,8.468c0.994,0.994,1.542,2.315,1.542,3.722c0,1.406-0.547,2.728-1.542,3.722
				l-68.204,68.204c-0.993,0.994-2.316,1.542-3.722,1.542C598.668,717.776,597.346,717.229,596.351,716.234z M674.006,718.242
				c-8.615,8.614-20.068,13.358-32.255,13.358c-10.349,0-20.162-3.434-28.164-9.741l64.038-64.038
				c6.308,8.003,9.742,17.816,9.742,28.163C687.368,698.169,682.623,709.626,674.006,718.242z"/>
		</g>
	</g>
</g>
</svg>
