<?xml version="1.0" encoding="utf-8"?>
<!-- Generator: Adobe Illustrator 16.0.0, SVG Export Plug-In . SVG Version: 6.00 Build 0)  -->
<!DOCTYPE svg PUBLIC "-//W3C//DTD SVG 1.1//EN" "http://www.w3.org/Graphics/SVG/1.1/DTD/svg11.dtd">
<svg version="1.1"
	 id="svg8694" xmlns:inkscape="http://www.inkscape.org/namespaces/inkscape" xmlns:dc="http://purl.org/dc/elements/1.1/" xmlns:sodipodi="http://sodipodi.sourceforge.net/DTD/sodipodi-0.dtd" xmlns:svg="http://www.w3.org/2000/svg" xmlns:cc="http://creativecommons.org/ns#" xmlns:rdf="http://www.w3.org/1999/02/22-rdf-syntax-ns#" sodipodi:docname="now_watching.svg" inkscape:version="0.91 r13725"
	 xmlns="http://www.w3.org/2000/svg" xmlns:xlink="http://www.w3.org/1999/xlink" x="0px" y="0px" width="500px" height="500px"
	 viewBox="0 0 500 500" enable-background="new 0 0 500 500" xml:space="preserve">
<sodipodi:namedview  showgrid="false" borderopacity="1.0" id="base" pagecolor="#ffffff" inkscape:zoom="0.35" inkscape:cy="520" inkscape:cx="-222.14286" bordercolor="#666666" units="px" inkscape:window-maximized="1" inkscape:window-y="-8" inkscape:window-x="-8" inkscape:window-height="1058" inkscape:document-units="px" inkscape:pageopacity="0.0" inkscape:window-width="1920" inkscape:pageshadow="2" inkscape:current-layer="_x31_">
	</sodipodi:namedview>
<g id="layer1" transform="translate(0,-552.36216)" inkscape:groupmode="layer" inkscape:label="Layer 1">
	<g id="_x31_" transform="translate(-688.31129,-319.64537)">
		<g id="g8153" transform="matrix(1.6680678,0,0,1.6680678,600.36576,687.34409)">
			<path id="path8155" inkscape:connector-curvature="0" fill="#FFFFFF" d="M335.885,191.981
				c-10.496-20.356-25.802-38.331-44.262-51.983c-2.709-2.003-6.528-1.43-8.532,1.278c-2.004,2.708-1.43,6.528,1.278,8.532
				c16.965,12.545,31.029,29.062,40.674,47.765c10.105,19.598,15.229,40.796,15.229,63.007c0,75.914-61.761,137.674-137.674,137.674
				c-75.913,0-137.675-61.761-137.675-137.675s61.761-137.674,137.674-137.674c3.368,0,6.1-2.732,6.1-6.1c0-3.368-2.732-6.1-6.1-6.1
				c-82.641,0-149.874,67.233-149.874,149.874s67.233,149.874,149.874,149.874s149.874-67.233,149.874-149.874
				C352.472,236.745,346.737,213.024,335.885,191.981z"/>
			<path id="path8157" inkscape:connector-curvature="0" fill="#FFFFFF" d="M164.248,190.988c-1.907,1.085-3.086,3.11-3.086,5.303
				v133.865c0,3.369,2.732,6.1,6.1,6.1c3.368,0,6.1-2.731,6.1-6.1V207.021l90.311,53.763l-66.411,42.787
				c-2.831,1.825-3.649,5.6-1.824,8.432c1.826,2.832,5.6,3.65,8.432,1.824l74.687-48.121c1.775-1.144,2.832-3.124,2.796-5.236
				c-0.038-2.112-1.164-4.053-2.979-5.134l-107.992-64.287C168.495,189.927,166.155,189.903,164.248,190.988z"/>
		</g>
	</g>
</g>
</svg>
