<?xml version="1.0" encoding="utf-8"?>
<!-- Generator: Adobe Illustrator 16.0.0, SVG Export Plug-In . SVG Version: 6.00 Build 0)  -->
<!DOCTYPE svg PUBLIC "-//W3C//DTD SVG 1.1//EN" "http://www.w3.org/Graphics/SVG/1.1/DTD/svg11.dtd">
<svg version="1.1"
	 id="svg8694" xmlns:inkscape="http://www.inkscape.org/namespaces/inkscape" xmlns:dc="http://purl.org/dc/elements/1.1/" xmlns:sodipodi="http://sodipodi.sourceforge.net/DTD/sodipodi-0.dtd" xmlns:svg="http://www.w3.org/2000/svg" xmlns:cc="http://creativecommons.org/ns#" xmlns:rdf="http://www.w3.org/1999/02/22-rdf-syntax-ns#" sodipodi:docname="sport.svg" inkscape:version="0.91 r13725"
	 xmlns="http://www.w3.org/2000/svg" xmlns:xlink="http://www.w3.org/1999/xlink" x="0px" y="0px" width="500px" height="500px"
	 viewBox="0 0 500 500" enable-background="new 0 0 500 500" xml:space="preserve">
<sodipodi:namedview  showgrid="false" borderopacity="1.0" id="base" pagecolor="#ffffff" inkscape:zoom="1.4" inkscape:cy="248.39267" inkscape:cx="310.22037" bordercolor="#666666" units="px" inkscape:snap-page="true" inkscape:snap-text-baseline="true" inkscape:object-paths="true" inkscape:object-nodes="true" inkscape:snap-smooth-nodes="true" inkscape:snap-center="true" inkscape:snap-object-midpoints="true" inkscape:window-maximized="1" inkscape:window-y="-8" inkscape:window-x="-8" inkscape:window-height="1058" inkscape:document-units="px" inkscape:pageopacity="0.0" inkscape:window-width="1920" inkscape:pageshadow="2" inkscape:current-layer="_x31_" inkscape:snap-intersection-paths="true">
	</sodipodi:namedview>
<g id="layer1" transform="translate(0,-552.36216)" inkscape:groupmode="layer" inkscape:label="Layer 1">
	<g id="_x31_" transform="translate(-688.31129,-319.64537)">
		<g id="Слой_14" transform="matrix(1.6661614,0,0,1.6661614,-1718.6732,688.02162)">
			<g id="g8471">
				<g id="g8473">
					<path id="path8475" inkscape:connector-curvature="0" fill="#FFFFFF" d="M1713.474,139.912
						c-33.87-33.87-91.453-39.017-141.164-13.078c-9.077-7.83-20.502-12.136-32.609-12.136c-13.373,0-25.95,5.207-35.402,14.67
						c-19.371,19.366-19.496,50.778-0.426,70.329c-4.005,9.903-6.364,19.967-7.054,30.07c-0.09,0.36-0.205,0.716-0.225,1.096
						c-0.31,5.427-0.105,10.85,0.546,16.252c0.01,0.025,0.01,0.05,0.01,0.07c0.391,3.229,0.966,6.449,1.697,9.658
						c0.075,0.33,0.15,0.661,0.23,0.991c0.736,3.079,1.612,6.143,2.659,9.192c0.13,0.386,0.285,0.771,0.421,1.157
						c1.102,3.095,2.323,6.173,3.745,9.232c3.895,8.371,4.967,17.303,3.024,25.154c-0.2,0.811-0.476,1.572-0.711,2.363
						c-0.305,1.036-0.576,2.098-0.936,3.099c-0.34,0.956-0.771,1.852-1.167,2.774c-0.335,0.791-0.626,1.607-1.001,2.378
						c-0.506,1.046-1.111,2.038-1.692,3.044c-0.345,0.596-0.641,1.222-1.006,1.807c-0.681,1.081-1.467,2.108-2.238,3.144
						c-0.345,0.466-0.646,0.956-1.006,1.417c-0.886,1.116-1.882,2.178-2.879,3.244c-0.32,0.345-0.596,0.706-0.931,1.046
						c-1.071,1.086-2.243,2.128-3.435,3.159c-0.33,0.291-0.616,0.597-0.961,0.882c-1.412,1.182-2.934,2.323-4.511,3.445
						c-0.165,0.12-0.305,0.245-0.476,0.365c-1.762,1.232-3.63,2.433-5.598,3.6c-5.753,3.41-13.283,8.031-20.442,13.533l-7.966,6.128
						c-3.354,2.578-5.432,6.474-5.708,10.694c-0.275,4.221,1.282,8.356,4.276,11.345l26.18,26.18
						c2.769,2.769,6.504,4.301,10.384,4.301c0.36,0,0.721-0.015,1.082-0.04c4.261-0.315,8.166-2.458,10.714-5.888l8.241-11.08
						c2.373-3.194,4.736-6.684,7.13-10.469c1.637-2.593,3.289-5.297,4.972-8.226c1.127-1.958,2.283-3.81,3.47-5.562
						c4.601-6.784,9.713-12.056,15.491-16.026c0.2-0.135,0.385-0.305,0.591-0.441c1.081-0.721,2.213-1.342,3.339-1.968
						c0.446-0.25,0.871-0.546,1.327-0.781c0.996-0.516,2.043-0.936,3.079-1.387c0.631-0.275,1.232-0.596,1.877-0.841
						c0.906-0.35,1.863-0.616,2.799-0.916c0.826-0.265,1.627-0.576,2.473-0.806c7.926-2.153,15.466-0.876,21.238,1.066
						c1.332,0.451,2.604,0.921,3.73,1.412c0.05,0.02,0.095,0.035,0.145,0.055c2.233,0.961,4.481,1.812,6.729,2.608
						c0.576,0.205,1.151,0.396,1.732,0.586c2.093,0.701,4.191,1.332,6.298,1.888c0.195,0.05,0.391,0.115,0.591,0.165
						c9.383,2.402,18.855,3.385,28.278,2.854c0.28-0.015,0.541-0.11,0.811-0.165c26.365-1.702,52.475-14.649,76.272-38.441
						c52.079-52.087,58.482-133.691,13.968-178.201H1713.474z M1511.378,136.453c7.565-7.57,17.629-11.736,28.323-11.736
						c10.694,0,20.758,4.166,28.323,11.736c15.616,15.616,15.616,41.025,0,56.641c-0.956,0.956-1.953,1.852-2.979,2.689
						c-0.365,0.3-0.756,0.556-1.126,0.836c-0.676,0.511-1.342,1.036-2.043,1.502c-0.471,0.315-0.961,0.581-1.442,0.871
						c-0.626,0.381-1.247,0.771-1.887,1.117c-0.541,0.285-1.097,0.526-1.647,0.786c-0.606,0.285-1.207,0.591-1.823,0.846
						c-0.591,0.245-1.192,0.446-1.792,0.661c-0.596,0.215-1.187,0.441-1.787,0.626c-0.631,0.195-1.267,0.345-1.908,0.506
						c-0.586,0.15-1.167,0.305-1.752,0.426c-0.671,0.14-1.352,0.235-2.028,0.34c-0.556,0.085-1.112,0.18-1.667,0.24
						c-0.726,0.08-1.457,0.12-2.188,0.16c-0.506,0.03-1.011,0.065-1.522,0.075c-0.791,0.015-1.577-0.01-2.363-0.045
						c-0.446-0.02-0.886-0.03-1.327-0.065c-0.856-0.065-1.712-0.165-2.568-0.285c-0.36-0.05-0.721-0.095-1.076-0.155
						c-0.931-0.155-1.858-0.35-2.779-0.571c-0.265-0.065-0.531-0.125-0.796-0.195c-1.006-0.265-2.008-0.571-2.994-0.916
						c-0.16-0.055-0.325-0.11-0.486-0.17c-1.076-0.391-2.138-0.826-3.184-1.312c-0.065-0.03-0.13-0.06-0.195-0.09
						c-3.405-1.607-6.634-3.72-9.578-6.343l-1.086-0.971c-0.2-0.195-0.421-0.36-0.621-0.561c-15.613-15.618-15.613-41.027,0-56.643
						H1511.378z M1490.855,398.614c-0.821,1.106-2.033,1.772-3.41,1.872c-1.362,0.105-2.674-0.375-3.65-1.357l-26.18-26.18
						c-0.966-0.966-1.452-2.248-1.357-3.615c0.09-1.362,0.731-2.573,1.812-3.405l7.966-6.128
						c6.734-5.181,13.929-9.592,19.446-12.856c4.496-2.664,8.546-5.517,12.161-8.581v-0.005c1.802-1.527,3.5-3.109,5.087-4.741
						c0.14-0.145,0.25-0.3,0.391-0.441c1.432-1.502,2.804-3.034,4.055-4.626c0.2-0.25,0.356-0.526,0.551-0.781
						c1.152-1.503,2.258-3.029,3.254-4.612c0.24-0.386,0.431-0.806,0.666-1.197c0.886-1.487,1.757-2.979,2.513-4.536
						c0.23-0.471,0.396-0.971,0.611-1.452c0.691-1.517,1.372-3.04,1.943-4.626c0.185-0.526,0.315-1.086,0.491-1.617
						c0.511-1.552,1.026-3.104,1.432-4.721c0.01-0.035,0.01-0.07,0.02-0.101c0-0.009,0-0.02,0.01-0.029
						c2.503-10.164,1.227-21.118-3.69-31.682c-0.571-1.227-1.006-2.458-1.522-3.69c-3.98-9.548-6.349-19.251-6.879-28.999
						l106.177,106.187c-0.02,0-0.045,0-0.065,0c-2.373-0.14-4.746-0.396-7.12-0.741c-0.175-0.025-0.35-0.04-0.526-0.07
						c-2.253-0.34-4.501-0.801-6.749-1.327c-0.275-0.065-0.551-0.11-0.831-0.18c-2.173-0.536-4.341-1.182-6.504-1.888
						c-0.325-0.105-0.651-0.185-0.976-0.295c-2.458-0.836-4.912-1.772-7.355-2.829c-3.56-1.537-7.135-2.639-10.694-3.38
						c-0.466-0.095-0.931-0.225-1.392-0.305c-0.451-0.08-0.896-0.115-1.347-0.185c-0.891-0.135-1.782-0.28-2.664-0.36
						c-0.165-0.015-0.335-0.01-0.501-0.025c-1.161-0.095-2.318-0.165-3.47-0.175c-0.035,0-0.07,0.005-0.105,0.005
						c-1.277-0.005-2.543,0.04-3.805,0.14c-0.36,0.03-0.711,0.095-1.066,0.135c-0.931,0.1-1.858,0.195-2.774,0.355
						c-1.042,0.18-2.068,0.426-3.094,0.686c-0.215,0.055-0.431,0.084-0.646,0.145h-0.01c-0.02,0.005-0.04,0.01-0.06,0.015
						c-1.983,0.542-3.895,1.182-5.763,1.883c-0.14,0.05-0.295,0.09-0.436,0.14c-1.858,0.711-3.645,1.522-5.392,2.398
						c-0.155,0.08-0.325,0.135-0.476,0.215c-1.657,0.846-3.244,1.797-4.811,2.799c-0.225,0.145-0.471,0.26-0.701,0.406
						c-1.617,1.066-3.179,2.238-4.711,3.475c-0.15,0.12-0.31,0.215-0.456,0.341c-6.674,5.501-12.502,12.687-17.719,21.744
						c-3.945,6.859-7.69,12.652-11.455,17.714l-8.234,11.083H1490.855z M1626.542,346.359c-0.045-0.045-0.065-0.104-0.11-0.15
						l-119.33-119.33c-0.015-0.015-0.04-0.025-0.055-0.04c0.786-6.819,2.328-13.638,4.842-20.442
						c2.373,1.587,4.866,2.914,7.425,4.05c0.105,0.045,0.205,0.1,0.31,0.145c1.111,0.486,2.238,0.916,3.375,1.322
						c0.31,0.11,0.621,0.22,0.936,0.325c1.031,0.34,2.068,0.646,3.119,0.916c0.436,0.115,0.871,0.215,1.307,0.32
						c0.976,0.225,1.958,0.436,2.944,0.601c0.521,0.09,1.047,0.155,1.572,0.225c0.931,0.13,1.863,0.255,2.804,0.33
						c0.596,0.05,1.192,0.06,1.787,0.085c0.746,0.035,1.492,0.105,2.243,0.105c0.14,0,0.275-0.02,0.411-0.02
						c0.776-0.005,1.552-0.07,2.328-0.11c1.242-0.065,2.473-0.175,3.71-0.335c0.911-0.115,1.822-0.225,2.724-0.391
						c0.641-0.12,1.272-0.28,1.908-0.426c0.856-0.19,1.707-0.386,2.553-0.621c0.636-0.18,1.267-0.391,1.898-0.596
						c0.831-0.27,1.657-0.551,2.473-0.866c0.621-0.24,1.237-0.496,1.848-0.761c0.816-0.35,1.622-0.726,2.418-1.122
						c0.591-0.29,1.172-0.591,1.752-0.906c0.816-0.446,1.617-0.931,2.418-1.427c0.531-0.33,1.062-0.651,1.582-1.001
						c0.866-0.586,1.707-1.222,2.543-1.868c0.421-0.325,0.851-0.626,1.262-0.966c1.232-1.016,2.428-2.083,3.58-3.234
						c1.172-1.172,2.263-2.393,3.294-3.645c0.36-0.441,0.671-0.901,1.016-1.347c0.641-0.836,1.277-1.667,1.858-2.528
						c0.37-0.556,0.701-1.127,1.046-1.692c0.486-0.786,0.971-1.572,1.407-2.378c0.335-0.621,0.636-1.257,0.941-1.893
						c0.375-0.776,0.751-1.552,1.086-2.343c0.285-0.671,0.536-1.352,0.791-2.033c0.29-0.776,0.566-1.552,0.816-2.338
						c0.225-0.711,0.431-1.427,0.621-2.148c0.205-0.771,0.396-1.542,0.566-2.318c0.16-0.746,0.31-1.492,0.441-2.243
						c0.13-0.761,0.235-1.522,0.33-2.283c0.095-0.776,0.185-1.552,0.245-2.328c0.055-0.741,0.08-1.477,0.105-2.218
						c0.025-0.806,0.055-1.612,0.045-2.413c-0.01-0.706-0.06-1.407-0.1-2.113c-0.05-0.836-0.085-1.672-0.175-2.508
						c-0.07-0.641-0.18-1.282-0.275-1.923c-0.13-0.891-0.245-1.782-0.421-2.664c-0.095-0.466-0.23-0.921-0.335-1.382
						c-0.801-3.455-1.973-6.834-3.51-10.089c-0.22-0.466-0.416-0.941-0.651-1.407c-0.426-0.831-0.911-1.637-1.387-2.448
						c-0.345-0.561-0.656-1.127-1.006-1.672c-0.476-0.741-0.996-1.457-1.512-2.178c-0.305-0.431-0.576-0.876-0.901-1.297
						c45.246-22.49,96.705-17.594,126.94,12.647c40.669,40.669,34.276,115.79-13.969,164.035
						C1671.387,332.065,1649.117,343.881,1626.542,346.359L1626.542,346.359z"/>
					<path id="path8477" inkscape:connector-curvature="0" fill="#FFFFFF" d="M1519.678,164.771
						c0-11.045,8.982-20.027,20.027-20.027c2.769,0,5.007-2.238,5.007-5.007s-2.238-5.007-5.007-5.007
						c-16.567,0-30.04,13.473-30.04,30.04c0,2.769,2.238,5.007,5.007,5.007C1517.442,169.777,1519.678,167.539,1519.678,164.771
						L1519.678,164.771z"/>
				</g>
			</g>
		</g>
	</g>
</g>
</svg>
