<?xml version="1.0" encoding="utf-8"?>
<!-- Generator: Adobe Illustrator 16.0.0, SVG Export Plug-In . SVG Version: 6.00 Build 0)  -->
<!DOCTYPE svg PUBLIC "-//W3C//DTD SVG 1.1//EN" "http://www.w3.org/Graphics/SVG/1.1/DTD/svg11.dtd">
<svg version="1.1"
	 id="Capa_1" xmlns:dc="http://purl.org/dc/elements/1.1/" xmlns:cc="http://creativecommons.org/ns#" xmlns:rdf="http://www.w3.org/1999/02/22-rdf-syntax-ns#" xmlns:svg="http://www.w3.org/2000/svg" xmlns:sodipodi="http://sodipodi.sourceforge.net/DTD/sodipodi-0.dtd" xmlns:inkscape="http://www.inkscape.org/namespaces/inkscape" sodipodi:docname="angle-arrow-pointing-to-right.svg" inkscape:version="0.91 r13725"
	 xmlns="http://www.w3.org/2000/svg" xmlns:xlink="http://www.w3.org/1999/xlink" x="0px" y="0px" width="500px" height="500px"
	 viewBox="0 0 500 500" enable-background="new 0 0 500 500" xml:space="preserve">
<sodipodi:namedview  inkscape:cy="249.99959" inkscape:cx="-71.53908" inkscape:zoom="0.82825616" fit-margin-left="0" fit-margin-top="0" showgrid="false" guidetolerance="10" gridtolerance="10" objecttolerance="10" borderopacity="1" pagecolor="#ffffff" bordercolor="#666666" id="namedview37" inkscape:current-layer="Capa_1" inkscape:window-maximized="1" inkscape:window-y="-8" inkscape:window-x="-8" fit-margin-bottom="0" fit-margin-right="0" inkscape:window-height="1058" inkscape:window-width="1920" inkscape:pageshadow="2" inkscape:pageopacity="0">
	</sodipodi:namedview>
<g id="g3" transform="matrix(1.75478,0,0,1.75478,-8.7443e-4,4.0785741e-4)">
	<path id="path5" inkscape:connector-curvature="0" fill="#FFFFFF" d="M222.701,135.9L89.652,2.857C87.748,0.955,85.557,0,83.084,0
		c-2.474,0-4.664,0.955-6.567,2.857L62.244,17.133c-1.906,1.903-2.855,4.089-2.855,6.567c0,2.478,0.949,4.664,2.855,6.567
		l112.204,112.204L62.244,254.677c-1.906,1.903-2.855,4.093-2.855,6.564c0,2.477,0.949,4.667,2.855,6.57l14.274,14.271
		c1.903,1.905,4.093,2.854,6.567,2.854c2.473,0,4.663-0.951,6.567-2.854l133.042-133.044c1.902-1.902,2.854-4.093,2.854-6.567
		C225.548,139.997,224.603,137.807,222.701,135.9z"/>
</g>
<g id="g7" transform="translate(3.3174928,107.5324)">
</g>
<g id="g9" transform="translate(3.3174928,107.5324)">
</g>
<g id="g11" transform="translate(3.3174928,107.5324)">
</g>
<g id="g13" transform="translate(3.3174928,107.5324)">
</g>
<g id="g15" transform="translate(3.3174928,107.5324)">
</g>
<g id="g17" transform="translate(3.3174928,107.5324)">
</g>
<g id="g19" transform="translate(3.3174928,107.5324)">
</g>
<g id="g21" transform="translate(3.3174928,107.5324)">
</g>
<g id="g23" transform="translate(3.3174928,107.5324)">
</g>
<g id="g25" transform="translate(3.3174928,107.5324)">
</g>
<g id="g27" transform="translate(3.3174928,107.5324)">
</g>
<g id="g29" transform="translate(3.3174928,107.5324)">
</g>
<g id="g31" transform="translate(3.3174928,107.5324)">
</g>
<g id="g33" transform="translate(3.3174928,107.5324)">
</g>
<g id="g35" transform="translate(3.3174928,107.5324)">
</g>
</svg>
