<?xml version="1.0" encoding="utf-8"?>
<!-- Generator: Adobe Illustrator 16.0.0, SVG Export Plug-In . SVG Version: 6.00 Build 0)  -->
<!DOCTYPE svg PUBLIC "-//W3C//DTD SVG 1.1//EN" "http://www.w3.org/Graphics/SVG/1.1/DTD/svg11.dtd">
<svg version="1.1"
	 id="svg8694" xmlns:dc="http://purl.org/dc/elements/1.1/" xmlns:cc="http://creativecommons.org/ns#" xmlns:rdf="http://www.w3.org/1999/02/22-rdf-syntax-ns#" xmlns:svg="http://www.w3.org/2000/svg" xmlns:sodipodi="http://sodipodi.sourceforge.net/DTD/sodipodi-0.dtd" xmlns:inkscape="http://www.inkscape.org/namespaces/inkscape" sodipodi:docname="cognitive.svg" inkscape:version="0.91 r13725"
	 xmlns="http://www.w3.org/2000/svg" xmlns:xlink="http://www.w3.org/1999/xlink" x="0px" y="0px" width="500px" height="500px"
	 viewBox="0 0 500 500" enable-background="new 0 0 500 500" xml:space="preserve">
<sodipodi:namedview  units="px" showgrid="false" inkscape:cy="248.39267" inkscape:cx="310.22037" inkscape:zoom="1.4" borderopacity="1.0" bordercolor="#666666" pagecolor="#ffffff" id="base" inkscape:snap-page="true" inkscape:snap-text-baseline="true" inkscape:object-paths="true" inkscape:object-nodes="true" inkscape:snap-smooth-nodes="true" inkscape:snap-center="true" inkscape:snap-object-midpoints="true" inkscape:window-maximized="1" inkscape:window-y="-8" inkscape:window-x="-8" inkscape:current-layer="_x31_" inkscape:document-units="px" inkscape:pageopacity="0.0" inkscape:window-height="1058" inkscape:window-width="1920" inkscape:pageshadow="2" inkscape:snap-intersection-paths="true">
	</sodipodi:namedview>
<g id="layer1" transform="translate(0,-552.36216)" inkscape:label="Layer 1" inkscape:groupmode="layer">
	<g id="_x31_" transform="translate(-688.31129,-319.64537)">
		<g id="_x37_" transform="matrix(1.6894739,0,0,1.6894739,596.65956,96.192862)">
			<g id="g8317">
				<path id="path8319" inkscape:connector-curvature="0" fill="#FFFFFF" d="M285.657,745.709h-2.05
					c-2.194-10.765-11.734-18.89-23.137-18.89h-40.928v-9.913c15.555-0.534,31.278-3.801,46.483-10.099
					c1.157-0.479,2.077-1.398,2.556-2.556c0.48-1.157,0.48-2.458,0-3.615l-2.41-5.817c-0.998-2.41-3.761-3.555-6.17-2.556
					c-2.41,0.998-3.555,3.761-2.556,6.17l0.568,1.373c-12.646,4.69-25.615,7.181-38.471,7.657v-1.492
					c0-2.608-2.114-4.723-4.723-4.723c-2.609,0-4.722,2.114-4.722,4.723v1.475c-47.01-1.859-91.018-30.428-110.172-76.669
					c-25.636-61.891,2.59-132.887,62.975-160.596l0.569,1.373c0.998,2.41,3.759,3.555,6.17,2.556c2.41-0.998,3.555-3.761,2.556-6.17
					l-2.41-5.818c-0.998-2.41-3.76-3.555-6.17-2.556C95.449,487.8,62.963,566.227,91.198,634.392
					c20.658,49.875,68.179,80.648,118.898,82.512v9.915h-40.929c-11.403,0-20.944,8.125-23.137,18.89h-2.05
					c-2.609,0-4.723,2.114-4.723,4.723c0,2.608,2.114,4.723,4.723,4.723h141.677c2.609,0,4.723-2.114,4.723-4.723
					C290.379,747.823,288.265,745.709,285.657,745.709L285.657,745.709L285.657,745.709z M169.167,736.264h91.303
					c6.156,0,11.406,3.949,13.355,9.445H155.811C157.761,740.212,163.01,736.264,169.167,736.264L169.167,736.264z"/>
				<path id="path8321" inkscape:connector-curvature="0" fill="#FFFFFF" d="M312.614,630.325
					c12.954-26.91,14.856-59.006,2.555-88.705c-16.879-40.749-56.285-67.079-100.392-67.079c-14.266,0-28.237,2.791-41.526,8.295
					c-26.805,11.103-47.682,31.98-58.784,58.784c-11.103,26.805-11.102,56.329,0.001,83.133
					c16.878,40.749,56.285,67.079,100.392,67.079c14.266,0,28.237-2.791,41.526-8.295c25.195-10.436,44.382-29.32,55.648-52.018
					c0.226-0.336,0.416-0.703,0.554-1.104C312.598,630.385,312.604,630.354,312.614,630.325z M305.551,623.105
					c-7.888-2.361-15.966-3.801-24.083-4.328c-0.436-5.717-1.225-11.645-2.37-17.724c-0.482-2.563-2.954-4.248-5.515-3.767
					c-2.563,0.483-4.25,2.952-3.767,5.515c1.024,5.44,1.732,10.713,2.147,15.778c-11.757,0.269-23.468,2.449-34.67,6.528
					l-16.306-39.365l39.215-16.243c1.977,5.104,3.745,10.269,5.268,15.411c0.742,2.5,3.367,3.929,5.87,3.187
					c2.5-0.74,3.927-3.369,3.187-5.869c-1.616-5.456-3.495-10.934-5.597-16.343l39.213-16.242
					C317.041,574.35,315.472,600.544,305.551,623.105L305.551,623.105L305.551,623.105z M173.046,605.601l39.217-16.244
					l16.305,39.364c-10.813,5.039-20.641,11.786-29.15,19.917C189.358,636.785,180.299,622.046,173.046,605.601L173.046,605.601
					L173.046,605.601z M256.591,560.772l-39.217,16.244l-16.305-39.364c10.813-5.039,20.641-11.786,29.15-19.916
					C240.28,529.588,249.339,544.327,256.591,560.772L256.591,560.772z M157.479,529.705c1.234-17.365,6.586-29.859,15.223-35.857
					l16.023,38.684c-10.186,3.663-20.827,5.607-31.507,5.826C157.195,535.406,157.278,532.517,157.479,529.705L157.479,529.705z
					 M197.451,528.917l-16.023-38.684c10.351-1.866,22.968,3.184,36.12,14.591c2.129,1.847,4.231,3.83,6.302,5.933
					C216.142,518.154,207.244,524.304,197.451,528.917L197.451,528.917z M192.342,541.263l16.307,39.368l-39.217,16.244
					c-6.5-16.755-10.515-33.581-11.782-49.076C169.415,547.532,181.132,545.346,192.342,541.263L192.342,541.263z M256.926,672.503
					l-16.015-38.662c10.18-3.661,20.814-5.604,31.487-5.825C272.568,649.09,267.062,665.374,256.926,672.503z M232.186,637.456
					l16.024,38.684c-10.349,1.866-22.968-3.184-36.12-14.591c-2.13-1.847-4.232-3.83-6.302-5.933
					C213.495,648.219,222.394,642.069,232.186,637.456L232.186,637.456z M304.522,540.918l-39.204,16.239
					c-7.774-17.671-17.587-33.534-28.535-46.267c5.39-6.138,10.099-12.901,14.018-20.184
					C274.128,499.76,293.504,517.489,304.522,540.918L304.522,540.918z M241.686,487.684c-3.247,5.801-7.049,11.227-11.339,16.213
					c-2.171-2.196-4.377-4.27-6.612-6.209c-6.704-5.814-13.397-10.191-19.91-13.088c3.625-0.405,7.279-0.615,10.953-0.615
					C224.042,483.986,233.074,485.272,241.686,487.684L241.686,487.684z M152.892,505.674c-2.564,6.659-4.205,14.498-4.835,23.361
					c-0.21,2.951-0.302,5.978-0.285,9.065c-6.549-0.492-13.066-1.638-19.455-3.439C134.6,523.409,142.933,513.607,152.892,505.674
					L152.892,505.674z M123.194,545.234c0.275-0.664,0.559-1.321,0.847-1.977c7.901,2.368,15.994,3.813,24.125,4.341
					c1.263,16.744,5.542,34.899,12.539,52.891l-39.214,16.243C113.095,593.457,113.661,568.248,123.194,545.234z M125.116,625.455
					l39.204-16.239c7.775,17.671,17.587,33.534,28.535,46.267c-5.39,6.138-10.099,12.901-14.018,20.184
					C155.509,666.613,136.133,648.884,125.116,625.455L125.116,625.455L125.116,625.455z M187.952,678.689
					c3.247-5.801,7.049-11.227,11.338-16.213c2.171,2.196,4.377,4.27,6.612,6.209c6.707,5.818,13.404,10.19,19.922,13.086
					c-3.629,0.406-7.285,0.616-10.965,0.616C205.595,682.387,196.564,681.101,187.952,678.689L187.952,678.689z M276.743,660.659
					c0.958-2.491,1.791-5.148,2.489-7.969c1.814-7.325,2.687-15.552,2.631-24.419c6.533,0.49,13.033,1.632,19.407,3.425
					C295.11,642.703,286.838,652.583,276.743,660.659L276.743,660.659z"/>
			</g>
		</g>
	</g>
</g>
</svg>
