<?xml version="1.0" encoding="utf-8"?>
<!-- Generator: Adobe Illustrator 16.0.0, SVG Export Plug-In . SVG Version: 6.00 Build 0)  -->
<!DOCTYPE svg PUBLIC "-//W3C//DTD SVG 1.1//EN" "http://www.w3.org/Graphics/SVG/1.1/DTD/svg11.dtd">
<svg version="1.1"
	 id="Capa_1" xmlns:inkscape="http://www.inkscape.org/namespaces/inkscape" xmlns:dc="http://purl.org/dc/elements/1.1/" xmlns:sodipodi="http://sodipodi.sourceforge.net/DTD/sodipodi-0.dtd" xmlns:svg="http://www.w3.org/2000/svg" xmlns:cc="http://creativecommons.org/ns#" xmlns:rdf="http://www.w3.org/1999/02/22-rdf-syntax-ns#" sodipodi:docname="left-arrow.svg" inkscape:version="0.91 r13725"
	 xmlns="http://www.w3.org/2000/svg" xmlns:xlink="http://www.w3.org/1999/xlink" x="0px" y="0px" width="500px" height="500px"
	 viewBox="0 0 500 500" enable-background="new 0 0 500 500" xml:space="preserve">
<sodipodi:namedview  showgrid="false" borderopacity="1" id="namedview37" pagecolor="#ffffff" inkscape:zoom="0.80722671" inkscape:cy="250.00052" inkscape:cx="-82.361604" bordercolor="#666666" inkscape:window-maximized="1" inkscape:window-y="-8" inkscape:window-x="-8" inkscape:window-height="1058" inkscape:pageopacity="0" inkscape:window-width="1920" inkscape:pageshadow="2" inkscape:current-layer="Capa_1" gridtolerance="10" objecttolerance="10" fit-margin-left="0" fit-margin-top="0" guidetolerance="10" fit-margin-right="0" fit-margin-bottom="0">
	</sodipodi:namedview>
<g id="g3" transform="matrix(1.7102203,0,0,1.7102203,-3.454e-6,-1.8712789e-5)">
	<path id="path5" inkscape:connector-curvature="0" fill="#7B7979" d="M222.979,5.424C219.364,1.807,215.08,0,210.132,0
		c-4.949,0-9.233,1.807-12.848,5.424L69.378,133.331c-3.615,3.617-5.424,7.898-5.424,12.847c0,4.949,1.809,9.233,5.424,12.847
		l127.906,127.907c3.614,3.617,7.898,5.428,12.848,5.428c4.948,0,9.232-1.811,12.847-5.428c3.617-3.614,5.428-7.898,5.428-12.847
		V18.271C228.405,13.322,226.596,9.042,222.979,5.424L222.979,5.424z"/>
</g>
<g id="g7" transform="translate(-5.5554291,103.81998)">
</g>
<g id="g9" transform="translate(-5.5554291,103.81998)">
</g>
<g id="g11" transform="translate(-5.5554291,103.81998)">
</g>
<g id="g13" transform="translate(-5.5554291,103.81998)">
</g>
<g id="g15" transform="translate(-5.5554291,103.81998)">
</g>
<g id="g17" transform="translate(-5.5554291,103.81998)">
</g>
<g id="g19" transform="translate(-5.5554291,103.81998)">
</g>
<g id="g21" transform="translate(-5.5554291,103.81998)">
</g>
<g id="g23" transform="translate(-5.5554291,103.81998)">
</g>
<g id="g25" transform="translate(-5.5554291,103.81998)">
</g>
<g id="g27" transform="translate(-5.5554291,103.81998)">
</g>
<g id="g29" transform="translate(-5.5554291,103.81998)">
</g>
<g id="g31" transform="translate(-5.5554291,103.81998)">
</g>
<g id="g33" transform="translate(-5.5554291,103.81998)">
</g>
<g id="g35" transform="translate(-5.5554291,103.81998)">
</g>
</svg>
