<?xml version="1.0" encoding="utf-8"?>
<!-- Generator: Adobe Illustrator 16.0.0, SVG Export Plug-In . SVG Version: 6.00 Build 0)  -->
<!DOCTYPE svg PUBLIC "-//W3C//DTD SVG 1.1//EN" "http://www.w3.org/Graphics/SVG/1.1/DTD/svg11.dtd">
<svg version="1.1"
	 id="Layer_1" xmlns:inkscape="http://www.inkscape.org/namespaces/inkscape" xmlns:dc="http://purl.org/dc/elements/1.1/" xmlns:sodipodi="http://sodipodi.sourceforge.net/DTD/sodipodi-0.dtd" xmlns:svg="http://www.w3.org/2000/svg" xmlns:cc="http://creativecommons.org/ns#" xmlns:rdf="http://www.w3.org/1999/02/22-rdf-syntax-ns#" sodipodi:docname="main_menu-icon.svg" inkscape:version="0.91 r13725"
	 xmlns="http://www.w3.org/2000/svg" xmlns:xlink="http://www.w3.org/1999/xlink" x="0px" y="0px" width="500px" height="500px"
	 viewBox="0 0 500 500" enable-background="new 0 0 500 500" xml:space="preserve">
<sodipodi:namedview  showgrid="false" borderopacity="1" id="namedview9" pagecolor="#ffffff" inkscape:zoom="0.4609375" inkscape:cy="173.3995" inkscape:cx="-140.50835" bordercolor="#666666" inkscape:window-maximized="1" inkscape:window-y="-8" inkscape:window-x="-8" inkscape:window-height="1058" inkscape:pageopacity="0" inkscape:window-width="1920" inkscape:pageshadow="2" inkscape:current-layer="Layer_1" gridtolerance="10" objecttolerance="10" fit-margin-left="0" fit-margin-top="0" guidetolerance="10" fit-margin-right="0" fit-margin-bottom="0">
	</sodipodi:namedview>
<g id="g4141" transform="matrix(0.97656298,0,0,0.97656298,-1.1485369,3.3044969)">
	<path id="path3" inkscape:connector-curvature="0" fill="#FFFFFF" d="M492.494,250.77H21.858c-11.422,0-20.682-9.259-20.682-20.682
		c0-11.423,9.26-20.682,20.682-20.682h470.636c11.423,0,20.682,9.26,20.682,20.682C513.176,241.511,503.917,250.77,492.494,250.77z"
		/>
	<path id="path5" inkscape:connector-curvature="0" fill="#FFFFFF" d="M492.494,93.891H21.858c-11.422,0-20.682-9.26-20.682-20.682
		s9.26-20.682,20.682-20.682h470.636c11.423,0,20.682,9.26,20.682,20.682S503.917,93.891,492.494,93.891z"/>
	<path id="path7" inkscape:connector-curvature="0" fill="#FFFFFF" d="M492.494,407.649H21.858
		c-11.422,0-20.682-9.259-20.682-20.682s9.26-20.682,20.682-20.682h470.636c11.423,0,20.682,9.259,20.682,20.682
		S503.917,407.649,492.494,407.649z"/>
</g>
</svg>
