<?xml version="1.0" encoding="utf-8"?>
<!-- Generator: Adobe Illustrator 16.0.0, SVG Export Plug-In . SVG Version: 6.00 Build 0)  -->
<!DOCTYPE svg PUBLIC "-//W3C//DTD SVG 1.1//EN" "http://www.w3.org/Graphics/SVG/1.1/DTD/svg11.dtd">
<svg version="1.1"
	 id="svg10" xmlns:dc="http://purl.org/dc/elements/1.1/" xmlns:cc="http://creativecommons.org/ns#" xmlns:rdf="http://www.w3.org/1999/02/22-rdf-syntax-ns#" xmlns:svg="http://www.w3.org/2000/svg" xmlns:sodipodi="http://sodipodi.sourceforge.net/DTD/sodipodi-0.dtd" xmlns:inkscape="http://www.inkscape.org/namespaces/inkscape" sodipodi:docname="tv_icon.svg" inkscape:version="0.92.2 (5c3e80d, 2017-08-06)"
	 xmlns="http://www.w3.org/2000/svg" xmlns:xlink="http://www.w3.org/1999/xlink" x="0px" y="0px" width="500px" height="500px"
	 viewBox="0 0 500 500" enable-background="new 0 0 500 500" xml:space="preserve">
<sodipodi:namedview  inkscape:cy="333.33334" inkscape:cx="333.33334" inkscape:zoom="0.86399997" showgrid="false" guidetolerance="10" gridtolerance="10" objecttolerance="10" borderopacity="1" pagecolor="#ffffff" bordercolor="#666666" id="namedview12" inkscape:current-layer="g20" inkscape:window-maximized="1" inkscape:window-y="-8" inkscape:window-x="-8" inkscape:window-height="745" inkscape:window-width="1366" inkscape:pageshadow="2" inkscape:pageopacity="0">
	</sodipodi:namedview>
<g id="g18" transform="matrix(1.3333333,0,0,-1.3333333,0,499.99998)" inkscape:label="television" inkscape:groupmode="layer">
	<g id="g20" transform="translate(-73.193484,-50.363347)">
		<g>
			<defs>
				
					<rect id="SVGID_1_" x="34.058" y="27.347" transform="matrix(-0.2753 -0.9614 0.9614 -0.2753 80.4093 557.6577)" width="432.693" height="442.346"/>
			</defs>
			<clipPath id="SVGID_2_">
				<use xlink:href="#SVGID_1_"  overflow="visible"/>
			</clipPath>
			<g id="g22" transform="matrix(0.91424533,0,0,0.91424533,22.355684,20.397892)" clip-path="url(#SVGID_2_)">
				<g id="g28" transform="translate(375.3916,265.8994)">
					<path id="path30" inkscape:connector-curvature="0" fill="#5D5880" d="M0,0c-13.147-3.765-26.905,3.869-30.669,17.016
						c-3.764,13.148,3.869,26.905,17.017,30.67c13.142,3.763,26.9-3.87,30.665-17.018C20.777,17.521,13.145,3.763,0,0
						 M26.204-91.521c-13.147-3.764-26.905,3.868-30.67,17.015c-3.763,13.149,3.869,26.905,17.017,30.67
						c13.142,3.764,26.901-3.87,30.665-17.018C46.981-74.001,39.348-87.759,26.204-91.521 M-23.39-110.471
						c2.173-7.59-2.217-15.502-9.806-17.674l-175.835-50.343c-7.585-2.172-15.498,2.218-17.671,9.807l-42.37,147.988
						c-2.174,7.59,2.218,15.502,9.806,17.674l175.83,50.343c7.589,2.173,15.502-2.217,17.675-9.807L-23.39-110.471z M-2.876,115.676
						l-107.707-30.838l20.276,73.706c1.76,6.388-1.997,12.996-8.385,14.754c-6.391,1.758-12.997-1.999-14.752-8.388l-24.159-87.807
						l-28.394-8.13l-66.969,61.716c-4.874,4.492-12.464,4.18-16.957-0.69c-4.488-4.876-4.179-12.468,0.694-16.956l56.212-51.807
						l-107.708-30.838c-13.94-3.991-22.031-18.574-18.041-32.51l59.735-208.636c3.99-13.937,18.574-22.027,32.513-18.036
						L71.33-143.507c13.937,3.99,22.032,18.573,18.041,32.511L29.637,97.64C25.643,111.575,11.059,119.666-2.876,115.676"/>
				</g>
			</g>
		</g>
	</g>
</g>
</svg>
